<svg width="144" height="130" viewBox="0 0 144 130" fill="none" xmlns="http://www.w3.org/2000/svg">
<path d="M143.232 74.7312C144.793 49.1264 128.66 27.9973 110.549 18.4215C94.3119 9.88663 78.4911 11.6561 73.495 12.2806C61.3623 13.8138 49.8802 18.637 40.2921 26.2279L52.1577 37.469C55.8007 34.6587 66.2091 27.2687 80.885 27.1646C82.4463 27.0605 105.033 27.2687 118.355 45.6916C123.179 52.1971 126.037 59.9491 126.591 68.029C127.144 76.1089 125.37 84.1781 121.478 91.2806C112.006 108.767 93.0629 113.451 89.4199 114.283L89.4199 130C98.1121 129.095 106.499 126.288 113.984 121.777C116.586 120.216 141.358 104.603 143.232 74.7312Z" fill="#5C9EDC"/>
<path d="M89.2119 38.6153L89.2119 0.208149L72.7666 0L72.7666 38.6153L89.2119 38.6153Z" fill="#5C9EDC"/>
<path d="M34.0998 85.1265L17.9733 103.1L-4.03902e-05 86.9733L16.1265 69L34.0998 85.1265Z" fill="#F0CA50"/>
</svg>
