<svg width="70" height="52" viewBox="0 0 70 52" fill="none" xmlns="http://www.w3.org/2000/svg">
<path d="M53.368 33.5079L34.5379 9.01252C32.51 7.91811 24.6239 5.89028 18.7656 11.7807L11.6198 18.9265C8.07904 22.4673 8.07904 28.2289 11.6198 31.7697L16.5124 36.6623L38.5292 48.6685C39.9133 50.0526 42.1343 50.0526 43.4862 48.6685L43.5184 48.6364C44.9025 47.2523 44.9025 45.0313 43.5184 43.6793L43.3253 43.4863L43.4218 43.5506C44.8059 44.9347 47.0269 44.9347 48.3788 43.5506L48.411 43.5184C49.7629 42.1665 49.7951 39.9455 48.4432 38.5936C49.8273 39.9133 52.0161 39.9133 53.368 38.5614L53.4002 38.5292C54.7521 37.1129 54.7521 34.892 53.368 33.5079Z" fill="#EEB098"/>
<path d="M55.8789 18.4116C54.527 17.0275 50.5356 13.1649 49.57 12.1027C43.6795 6.21222 35.7612 8.24008 33.7655 9.36668L24.7527 13.2936C22.6283 14.3237 21.7592 16.8665 22.7893 18.9587C23.8193 21.0832 26.3622 21.9523 28.4544 20.9223L33.6045 18.6369C33.6367 18.669 36.5659 20.2141 40.171 20.2463L53.4004 33.4757C53.7544 33.8298 54.0119 34.216 54.1729 34.6667L55.8789 32.9607C59.9024 28.9693 59.9024 22.4351 55.8789 18.4116Z" fill="#AE7761"/>
<path d="M15.5146 39.2694C14.0983 37.8531 14.0983 35.6321 15.4824 34.2802L17.5746 32.188C18.9587 30.8039 21.1797 30.8039 22.5316 32.188L22.5638 32.2202C23.9479 33.6043 23.9479 35.8253 22.5638 37.1772L20.4716 39.2694C19.0875 40.6535 16.8665 40.6535 15.5146 39.2694Z" fill="#AE7761"/>
<path d="M20.9225 43.8724C19.5062 42.4561 19.5062 40.2351 20.8903 38.8832L25.107 34.6665C26.4911 33.2824 28.7121 33.2824 30.064 34.6665L30.0962 34.6987C31.4803 36.0828 31.4803 38.3038 30.0962 39.6557L25.8795 43.8724C24.4954 45.2565 22.2744 45.2565 20.9225 43.8724Z" fill="#AE7761"/>
<path d="M27.1023 47.6705C25.686 46.2542 25.686 44.0333 27.0701 42.6813L29.1624 40.5891C30.5465 39.205 32.7674 39.205 34.1194 40.5891L34.1515 40.6212C35.5356 42.0053 35.5356 44.2264 34.1515 45.5783L32.0593 47.6705C30.7074 49.0546 28.4864 49.0546 27.1023 47.6705Z" fill="#AE7761"/>
<path d="M33.7979 50.9863C32.3816 49.57 32.3816 47.349 33.7657 45.9971L33.8944 45.8684C35.2785 44.4843 37.4995 44.4843 38.8514 45.8684L38.8836 45.9006C40.2677 47.2847 40.2677 49.5057 38.8836 50.8576L38.7549 50.9863C37.4029 52.3382 35.182 52.3382 33.7979 50.9863Z" fill="#AE7761"/>
<path d="M23.5941 9.68865L9.33462 23.948C7.66083 25.6218 4.92482 25.6218 3.25102 23.948L1.25535 21.9524C-0.418448 20.2786 -0.418448 17.5426 1.25535 15.8688L15.5148 1.60935C17.1886 -0.0644445 19.9246 -0.0644445 21.5984 1.60935L23.5941 3.60501C25.2678 5.2788 25.2678 8.01486 23.5941 9.68865Z" fill="#EE4D4A"/>
<path d="M59.806 23.4975L45.6431 9.33465C43.9693 7.66086 43.9693 4.92488 45.6431 3.25109L47.6388 1.25535C49.3126 -0.418448 52.0486 -0.418448 53.7224 1.25535L67.8853 15.4182C69.5591 17.092 69.5591 19.8281 67.8853 21.5019L65.8896 23.4975C64.2158 25.2035 61.512 25.2035 59.806 23.4975Z" fill="#5C9EDC"/>
</svg>
