<svg width="64" height="65" viewBox="0 0 64 65" fill="none" xmlns="http://www.w3.org/2000/svg">
<path d="M23.8397 47.6793C37.006 47.6793 47.6793 37.006 47.6793 23.8397C47.6793 10.6734 37.006 0 23.8397 0C10.6734 0 0 10.6734 0 23.8397C0 37.006 10.6734 47.6793 23.8397 47.6793Z" fill="#F0CA50"/>
<path d="M23.8383 43.6857C34.7995 43.6857 43.6853 34.7999 43.6853 23.8387C43.6853 12.8775 34.7995 3.9917 23.8383 3.9917C12.8771 3.9917 3.99127 12.8775 3.99127 23.8387C3.99127 34.7999 12.8771 43.6857 23.8383 43.6857Z" fill="#F0CA50"/>
<path d="M31.1253 33.7632C29.7298 35.0811 27.9079 35.9339 25.9697 36.1277V38.2985C25.9697 38.7637 25.8147 39.2289 25.5046 39.5777C24.768 40.2367 23.6827 40.2367 22.9461 39.5777C22.636 39.2289 22.4422 38.7637 22.481 38.2985V36.2053C21.163 36.089 19.8838 35.8176 18.6434 35.3912C17.4805 35.0036 16.3951 34.4222 15.426 33.6857C15.1546 33.5306 14.9608 33.2592 14.8058 32.9879C14.6895 32.6778 14.612 32.3676 14.6507 32.0575C14.6507 31.5923 14.8058 31.1273 15.0771 30.7784C15.3097 30.4295 15.6586 30.2356 16.0462 30.2356C16.2788 30.2356 16.4726 30.2744 16.6664 30.3519C16.9378 30.4682 17.2091 30.5845 17.4417 30.7396C18.4108 31.3986 19.4574 31.9025 20.5816 32.2513C21.6282 32.5614 22.7136 32.7553 23.799 32.7166C25.0394 32.7941 26.2798 32.484 27.3652 31.825C28.218 31.2435 28.6832 30.2745 28.6056 29.2278C28.6444 28.6076 28.3731 28.0261 27.9079 27.5997C27.404 27.1733 26.8225 26.8244 26.2023 26.6306C25.5046 26.398 24.5355 26.0879 23.295 25.7778C21.8608 25.4289 20.4653 25.0026 19.0698 24.4599C17.9844 23.9947 17.0153 23.297 16.2788 22.4054C15.4648 21.3588 15.0384 20.0408 15.1159 18.684C15.0771 16.9009 15.8136 15.1566 17.1316 13.9162C18.5659 12.5594 20.4265 11.7066 22.3647 11.474V9.30324C22.3259 8.83808 22.5198 8.3729 22.8299 8.02402C23.5664 7.36504 24.6518 7.36504 25.3883 8.02402C25.6984 8.3729 25.8922 8.83808 25.8534 9.30324V11.4352C28.063 11.6678 30.1174 12.5594 31.8618 13.9549C32.4045 14.3038 32.7146 14.924 32.6758 15.5829C32.6758 16.0481 32.5208 16.5133 32.2494 16.8622C32.0169 17.211 31.6292 17.4049 31.2416 17.4049C31.0478 17.4049 30.8152 17.3661 30.6214 17.2886C30.35 17.1723 30.0787 17.056 29.8461 16.8622C29.0321 16.2419 28.1017 15.7381 27.1714 15.3504C26.2023 15.0015 25.1944 14.8465 24.1866 14.8465C22.9849 14.7689 21.7832 15.1178 20.7754 15.7768C19.9226 16.3582 19.4574 17.3661 19.4962 18.374C19.4574 19.0718 19.7288 19.7307 20.2327 20.2346C20.7366 20.7385 21.3956 21.0874 22.0546 21.32C22.7911 21.5913 23.799 21.8627 25.0394 22.1728C26.4349 22.4829 27.7916 22.9093 29.1483 23.452C30.195 23.8784 31.1253 24.5762 31.8618 25.429C32.6371 26.4756 33.0635 27.7548 32.9859 29.034C33.1022 30.8559 32.4045 32.5615 31.1253 33.7632Z" fill="white"/>
<path d="M63.1452 47.4839L41.2089 39.9787C40.1511 39.6261 39.1185 40.6335 39.4963 41.6913L47.0519 63.5017C47.1526 63.7788 47.3289 64.0055 47.5556 64.1566C48.2356 64.6351 49.1926 64.2825 49.4445 63.4766L52.8193 53.1506L63.0949 49.8765C64.203 49.5239 64.3038 47.9372 63.2208 47.5091C63.2208 47.4839 63.1956 47.4839 63.1452 47.4839Z" fill="#EE4D4A"/>
<path d="M50.3773 53.9568L47.1032 63.6531C47.204 63.8798 47.3551 64.0309 47.5314 64.1568C48.2114 64.6354 49.1684 64.2828 49.4203 63.4768L52.7951 53.1509L50.3773 53.9568Z" fill="#EE4D4A"/>
<path d="M63.2463 47.509C63.2211 47.509 63.1959 47.4839 63.1707 47.4839L41.2343 39.9787C40.2017 39.6261 39.2195 40.5579 39.4965 41.5653L60.5011 48.7431C60.5262 48.7431 60.5514 48.7683 60.5766 48.7683C61.307 49.0705 61.5085 49.8765 61.2062 50.5061L63.1455 49.8765C64.2285 49.5239 64.304 47.9372 63.2463 47.509Z" fill="#EE4D4A"/>
<path d="M39.0932 50.7835C39.068 50.7835 39.0176 50.7835 38.9925 50.7835C33.4517 50.2294 29.2709 45.4694 29.4724 39.9538C29.6739 34.2619 34.308 29.8293 40.0502 29.8293C40.1762 29.8293 40.3021 29.8293 40.428 29.8293C43.0221 29.9301 45.4903 30.9375 47.354 32.7257C47.6814 33.0279 47.7569 33.456 47.6058 33.859C47.4295 34.262 47.0518 34.5642 46.5984 34.5642C46.3466 34.5642 46.0947 34.4634 45.8932 34.2871C44.3821 32.8516 42.4177 32.0457 40.3273 31.9701C40.2265 31.9701 40.1258 31.9701 40.0251 31.9701C35.4413 31.9701 31.7139 35.5212 31.5376 40.0797C31.3865 44.4872 34.7361 48.2902 39.1688 48.7435C39.7228 48.7939 40.1258 49.2472 40.0754 49.8264C40.0754 50.3553 39.6473 50.7835 39.0932 50.7835Z" fill="#5C9EDC"/>
<path d="M43.8521 35.8734C43.6506 35.8734 43.4492 35.7978 43.2729 35.6971C42.3914 35.0927 41.3336 34.74 40.2506 34.7148C39.6714 34.6897 39.2432 34.2363 39.2432 33.6571C39.2432 33.0778 39.6966 32.6245 40.2758 32.6245H40.3262C41.8121 32.6749 43.2477 33.1534 44.4566 33.9845C44.8343 34.2363 45.0106 34.6897 44.8595 35.1178C44.7336 35.5712 44.3055 35.8734 43.8521 35.8734Z" fill="#5C9EDC"/>
<path d="M38.363 47.8619C38.2875 47.8619 38.1867 47.8619 38.1112 47.8367C36.4238 47.4086 34.9126 46.4012 33.8297 45.016C32.7467 43.6056 32.1926 41.8426 32.243 40.0796C32.3438 36.9567 34.3082 34.2367 37.2549 33.1285C37.3808 33.0782 37.5067 33.053 37.6327 33.053C38.1364 33.053 38.5645 33.4308 38.6401 33.9345C38.7408 34.4382 38.4638 34.9167 37.9853 35.0929C35.8445 35.8989 34.4089 37.8885 34.3334 40.1552C34.283 41.4397 34.686 42.7241 35.4667 43.7315C36.2475 44.7389 37.3556 45.4693 38.5897 45.7967C39.0934 45.9226 39.4208 46.4011 39.3453 46.93C39.3201 47.4589 38.8919 47.8619 38.363 47.8619Z" fill="#5C9EDC"/>
</svg>
