<svg width="52" height="52" viewBox="0 0 52 52" fill="none" xmlns="http://www.w3.org/2000/svg">
<path d="M44.3989 30.3261H7.68838C6.35828 30.3261 5.26761 29.2355 5.26761 27.9054V2.42076C5.26761 1.09067 6.35828 0 7.68838 0H44.3989C45.729 0 46.8197 1.09067 46.8197 2.42076V27.9054C46.8197 29.2355 45.729 30.3261 44.3989 30.3261Z" fill="#EE4D4A"/>
<path d="M22.319 11.5186V13.8064C22.319 15.1897 21.2017 16.2804 19.845 16.2804H2.47397C1.09068 16.2804 0 17.3976 0 18.7543V45.1966C0 46.5799 1.11728 47.6706 2.47397 47.6706H45.4094H49.5061C50.8894 47.6706 51.98 46.5533 51.98 45.1966V11.5186C51.98 10.1353 50.8628 9.04465 49.5061 9.04465H24.7929C23.4362 9.01805 22.319 10.1353 22.319 11.5186Z" fill="#F0CA50"/>
<path d="M21.9463 36.2317V40.1155C21.9463 44.7442 19.4723 49.0271 15.4288 51.3415C13.8859 52.2194 11.9972 52.2194 10.4543 51.3415C6.4374 49.0271 3.93683 44.7442 3.93683 40.1155V36.2317C3.93683 35.5134 4.57527 34.9548 5.29352 35.0346C6.59701 35.1942 8.67196 35.1942 10.6937 34.0769C11.1991 33.8109 11.678 33.4651 12.1568 33.0394C12.609 32.6138 13.3273 32.6138 13.7795 33.0394C16.1737 35.1942 18.9935 35.2474 20.6428 35.0612C21.3078 34.9548 21.9463 35.5134 21.9463 36.2317Z" fill="#5C9EDC"/>
<path d="M18.6495 38.3447V40.2259C18.6495 43.607 16.8192 46.7593 13.8957 48.4371C13.5652 48.6405 13.1585 48.7168 12.7517 48.6659C12.4975 48.6405 12.2433 48.5642 12.0145 48.4371C9.06559 46.7593 7.26065 43.607 7.26065 40.2259V38.3447C8.04872 38.3193 8.91306 38.2176 9.85366 37.9634C10.8705 37.6838 11.9382 37.2262 12.9805 36.5398C14.9126 37.8617 16.9971 38.2939 18.6495 38.3447Z" fill="white"/>
</svg>
