<svg width="57" height="64" viewBox="0 0 57 64" fill="none" xmlns="http://www.w3.org/2000/svg">
<path d="M52.8128 11.4139L45.9931 20.6331H29.007L28.5018 20.2543C27.2074 19.3071 26.9232 17.4759 27.8704 16.1814L38.9208 1.18441C39.868 -0.11007 41.6992 -0.394231 42.9937 0.58452L43.7199 1.12126L52.1498 7.34107C53.5074 8.28825 53.76 10.1195 52.8128 11.4139Z" fill="#EE4D4A"/>
<path d="M26.5531 15.5023H8.71454L6.94648 8.93515C6.53603 7.38809 7.45164 5.7779 8.9987 5.33588L17.9022 2.93635L19.986 2.36805C21.533 1.9576 23.1432 2.87321 23.5853 4.42027L26.5531 15.5023Z" fill="#F0CA50"/>
<path d="M50.5795 22.6694V30.4363C50.5795 31.8887 50.0112 33.3094 48.9693 34.3197L34.9195 48.2117C33.8776 49.2536 33.3093 50.6428 33.3093 52.0951V58.0939C33.3093 58.978 32.8357 59.7673 32.0464 60.2093L28.7944 61.9458L25.2267 63.8402C24.3111 64.3137 23.206 63.6823 23.206 62.6404V52.0951C23.206 50.6428 22.6377 49.2536 21.5958 48.2117L7.546 34.3197C6.5041 33.3094 5.93579 31.8887 5.93579 30.4363V22.6694H50.5795Z" fill="#5C9EDC"/>
<path d="M56.515 19.0384C56.515 20.175 56.0414 21.2169 55.3153 21.9746C54.5575 22.7323 53.5156 23.1744 52.379 23.1744H4.13601C1.83121 23.1744 0 21.3116 0 19.0384C0 17.9017 0.473589 16.8598 1.19976 16.1021C1.9575 15.3444 2.9994 14.9023 4.13601 14.9023H52.379C54.6522 14.9023 56.515 16.7651 56.515 19.0384Z" fill="#1C427B"/>
<path d="M46.3392 12.614C46.6549 12.614 46.9706 12.4562 47.1916 12.2036C47.5389 11.73 47.4442 11.0985 46.9706 10.7512L41.3823 6.58366C40.9087 6.23636 40.2772 6.33108 39.9299 6.80467C39.5826 7.27826 39.6773 7.9097 40.1509 8.257L45.7393 12.393C45.8971 12.5193 46.1181 12.614 46.3392 12.614Z" fill="white"/>
<path d="M19.3551 8.55612L12.6617 10.3874C12.0934 10.5452 11.7777 11.1135 11.9355 11.6818C12.0934 12.2501 12.6617 12.5659 13.23 12.408L19.9234 10.5768C20.4917 10.4189 20.8075 9.85062 20.6496 9.28231C20.4917 8.74557 19.8918 8.39826 19.3551 8.55612Z" fill="white"/>
</svg>
