<svg width="119" height="120" viewBox="0 0 119 120" fill="none" xmlns="http://www.w3.org/2000/svg">
<path opacity="0.3" d="M92.7152 104.368C92.6039 105.425 92.27 106.482 91.8248 107.427C91.2683 108.484 90.5448 109.375 89.6544 110.098H8.06962C7.23485 109.375 6.51138 108.54 5.95487 107.594C4.61924 105.147 4.45229 102.087 6.01052 99.3609L31.2206 55.078L48.862 43.0059L66.5035 55.078L91.6022 99.3052C92.5483 100.974 92.8822 102.699 92.7152 104.368Z" fill="#5C9EDC"/>
<path opacity="0.6" d="M112.304 110.098H89.5982C90.4887 109.374 91.2678 108.429 91.7686 107.427C92.2695 106.482 92.6034 105.425 92.7147 104.368C92.8817 102.699 92.5478 100.974 91.6573 99.3607L76.1863 72.1011L82.1966 66.8161L84.534 64.7577L101.786 78.165L114.196 99.9726C116.144 103.589 115.087 107.761 112.304 110.098Z" fill="#5C9EDC"/>
<path d="M101.731 78.1651C98.1135 77.8313 97.8909 74.8828 93.8283 74.8828C92.4371 74.8828 91.491 75.2722 90.6562 75.7173C89.7658 76.2736 89.098 76.9412 88.2076 77.4419C87.4841 77.8869 86.538 78.1651 85.258 78.1651C81.3624 78.1651 81.0285 75.3835 77.7451 74.9384L73.2374 66.9831L77.2999 59.8066C77.4669 59.5284 77.5782 59.3059 77.7451 59.0834C78.246 58.4158 78.8025 57.8038 79.4703 57.3588C83.1433 54.5772 88.8197 55.4117 91.324 59.8622L101.731 78.1651Z" fill="#163459"/>
<path d="M66.5033 55.0778C63.9989 55.8011 63.0529 57.47 59.1016 57.47C53.9817 57.47 53.9817 54.744 48.8618 54.744C43.7419 54.744 43.7419 57.47 38.622 57.47C34.6707 57.47 33.7803 55.8567 31.2203 55.0778L41.5158 36.9975C44.7436 31.2674 53.0356 31.2674 56.2634 36.9975L66.5033 55.0778Z" fill="#163459"/>
<path d="M50.5868 2.50566C57.5432 5.34288 64.5553 -2.94625 71.5117 1.1705C71.9013 1.39303 72.1239 1.78245 72.1239 2.2275V17.3037C72.1239 18.1938 71.2334 18.8058 70.3987 18.472C63.4423 15.6348 56.4302 23.9239 49.4738 19.8071C49.0842 19.5846 48.8616 19.1952 48.8616 18.7501V3.67393C48.8616 2.78382 49.7521 2.17187 50.5868 2.50566Z" fill="#F1CA50"/>
<path d="M113.974 120H5.00862C2.22605 120 0 117.775 0 115.049C0 112.323 2.22605 110.098 5.00862 110.098H113.974C116.756 110.098 118.982 112.323 118.982 115.049C118.982 117.775 116.756 120 113.974 120Z" fill="#EE4D4A"/>
<path d="M50.6426 32.9364V24.2578C51.7 24.5916 52.7017 24.7029 53.7591 24.7029C56.319 24.7029 58.7677 23.8684 61.105 23.0339C64.778 21.7544 68.0058 20.6418 71.1223 22.8114C71.6788 23.2008 72.4023 23.2565 73.0144 22.9227C73.6266 22.5889 73.9605 21.9769 73.9605 21.3093V3.45154C73.9605 2.83959 73.6822 2.28327 73.1814 1.94948C68.5623 -1.27716 63.9433 0.336159 59.9364 1.72695C56.2634 3.00649 53.0356 4.11912 49.9191 1.94948C49.5852 1.78259 49.2513 1.67132 48.8618 1.67132C47.86 1.67132 47.0253 2.5058 47.0253 3.50717V32.992L50.6426 32.9364ZM70.3432 18.4721C66.6702 17.3039 63.1085 18.5278 59.9364 19.6404C56.5416 20.8087 53.5921 21.8657 50.6983 20.3636V6.34439C54.3712 7.51266 57.8773 6.28876 61.105 5.17613C64.4998 4.00786 67.4493 2.95085 70.3432 4.45291V18.4721Z" fill="#163459"/>
</svg>
