<svg width="113" height="120" viewBox="0 0 113 120" fill="none" xmlns="http://www.w3.org/2000/svg">
<path d="M112.22 45.5469V57.4335C112.22 58.7302 111.139 59.8107 109.842 59.8107H97.9559C96.6591 59.8107 95.5786 58.7302 95.5786 57.4335V45.5469C95.5786 44.2502 96.6591 43.1697 97.9559 43.1697H109.842C111.193 43.1697 112.22 44.1962 112.22 45.5469Z" fill="#5C9EDC"/>
<path d="M107.951 52.0848H99.9549C99.6307 52.0848 99.3606 51.8146 99.3606 51.4904C99.3606 51.1662 99.6307 50.896 99.9549 50.896H107.951C108.275 50.896 108.546 51.1662 108.546 51.4904C108.546 51.8146 108.275 52.0848 107.951 52.0848Z" fill="#163459"/>
<path d="M103.953 56.0828C103.629 56.0828 103.359 55.8126 103.359 55.4884V47.4921C103.359 47.1679 103.629 46.8977 103.953 46.8977C104.277 46.8977 104.547 47.1679 104.547 47.4921V55.4884C104.493 55.8126 104.277 56.0828 103.953 56.0828Z" fill="#163459"/>
<path d="M41.0085 93.7956L37.1724 92.7689C36.9023 92.6608 36.6862 92.4449 36.5781 92.1747C36.2539 90.878 35.7136 89.6892 35.0653 88.5006C34.9032 88.2304 34.9032 87.9062 35.0653 87.6901L37.0103 84.2323C37.2265 83.9081 37.1724 83.4759 36.8483 83.2058L34.1468 80.5043C33.8766 80.2341 33.4444 80.1799 33.1202 80.342L29.6623 82.2871C29.3922 82.4492 29.068 82.4492 28.8519 82.2871C27.7172 81.6388 26.4745 81.1526 25.2319 80.7744C24.9617 80.6664 24.7456 80.4502 24.6375 80.18L23.611 76.3439C23.5029 75.9657 23.1787 75.6957 22.8005 75.6957H18.9644C18.5862 75.6957 18.262 75.9657 18.154 76.3439L17.1274 80.18C17.0194 80.4502 16.8032 80.6664 16.5331 80.7744C15.2364 81.0986 14.0477 81.6388 12.8591 82.2871C12.5889 82.4492 12.2647 82.4492 12.0486 82.2871L8.59072 80.342C8.26654 80.1259 7.83431 80.2341 7.56416 80.5043L4.80864 83.2058C4.53849 83.4759 4.48446 83.9081 4.64655 84.2323L6.59162 87.6901C6.75371 87.9603 6.75371 88.2844 6.59162 88.5006C5.94327 89.6352 5.457 90.878 5.07879 92.1747C4.97073 92.4449 4.75461 92.6608 4.48446 92.7689L0.648356 93.7956C0.270148 93.9037 0 94.2279 0 94.6061V98.442C0 98.8202 0.270148 99.1444 0.648356 99.2524L4.48446 100.279C4.75461 100.387 4.97073 100.603 5.07879 100.873C5.40297 102.17 5.94327 103.413 6.59162 104.547C6.75371 104.818 6.75371 105.142 6.59162 105.358L4.64655 108.762C4.43043 109.086 4.48446 109.518 4.80864 109.788L7.56416 112.544C7.83431 112.814 8.26654 112.868 8.59072 112.706L12.0486 110.761C12.3188 110.599 12.6429 110.599 12.8591 110.761C13.9937 111.409 15.2364 111.895 16.5331 112.274C16.8032 112.382 17.0194 112.598 17.1274 112.868L18.154 116.704C18.262 117.082 18.5862 117.352 18.9644 117.352H22.8005C23.1787 117.352 23.5029 117.082 23.611 116.704L24.6375 112.868C24.7456 112.598 24.9617 112.382 25.2319 112.274C26.5286 111.949 27.7172 111.409 28.9059 110.761C29.176 110.599 29.5002 110.599 29.7163 110.761L33.1742 112.706C33.4984 112.922 33.9306 112.868 34.2008 112.544L36.9023 109.788C37.1724 109.518 37.2265 109.086 37.0644 108.762L35.1193 105.358C34.9572 105.088 34.9572 104.764 35.1193 104.547C35.7677 103.413 36.2539 102.17 36.6321 100.873C36.7402 100.603 36.9563 100.387 37.2265 100.279L41.0626 99.2524C41.4408 99.1444 41.7109 98.8202 41.7109 98.442V94.6061C41.6029 94.2279 41.3867 93.9037 41.0085 93.7956ZM20.8555 104.493C16.4791 104.493 12.9131 100.927 12.9131 96.5509C12.9131 92.1745 16.4791 88.6087 20.8555 88.6087C25.2319 88.6087 28.7978 92.1745 28.7978 96.5509C28.8519 100.981 25.2859 104.493 20.8555 104.493Z" fill="#F1CA50"/>
<path d="M32.3098 23.7731H99.4146V113.246H32.3098V23.7731Z" fill="#F1CA50"/>
<path d="M25.556 30.5267H92.6609V120H25.556V30.5267Z" fill="#FDDCCF"/>
<path d="M84.0702 61.7017H49.3291C48.8429 61.7017 48.5187 62.0799 48.5187 62.5121C48.5187 62.9443 48.8969 63.3226 49.3291 63.3226H84.0702C84.5565 63.3226 84.8807 62.9443 84.8807 62.5121C84.8807 62.0799 84.5025 61.7017 84.0702 61.7017Z" fill="#163459"/>
<path d="M34.1468 60.6753H42.8456V69.3741H34.1468V60.6753Z" fill="#5C9EDC"/>
<path d="M34.1468 74.6688H42.8456V83.3677H34.1468V74.6688Z" fill="#5C9EDC"/>
<path d="M34.1468 88.7168H42.8456V97.4156H34.1468V88.7168Z" fill="#5C9EDC"/>
<path d="M49.3291 77.3704H84.0702C84.5564 77.3704 84.8806 76.9922 84.8806 76.56C84.8806 76.0737 84.5024 75.7495 84.0702 75.7495H49.3291C48.8428 75.7495 48.5186 76.1277 48.5186 76.56C48.4646 77.0462 48.8428 77.3704 49.3291 77.3704Z" fill="#163459"/>
<path d="M84.0702 89.7437H49.3291C48.8429 89.7437 48.5187 90.1219 48.5187 90.5541C48.5187 90.9863 48.8969 91.3645 49.3291 91.3645H84.0702C84.5565 91.3645 84.8807 90.9863 84.8807 90.5541C84.8807 90.0678 84.5025 89.7437 84.0702 89.7437Z" fill="#163459"/>
<path d="M84.0702 103.737H49.3291C48.8429 103.737 48.5187 104.115 48.5187 104.547C48.5187 105.034 48.8969 105.358 49.3291 105.358H84.0702C84.5565 105.358 84.8807 104.979 84.8807 104.547C84.8807 104.115 84.5025 103.737 84.0702 103.737Z" fill="#163459"/>
<path d="M34.1468 102.71H42.8456V111.409H34.1468V102.71Z" fill="#5C9EDC"/>
<path d="M33.2283 35.3894V52.1386C33.2283 52.787 32.688 53.3271 32.0396 53.3271H15.2904C14.642 53.3271 14.1017 52.787 14.1017 52.1386V35.3894C14.1017 34.7411 14.642 34.2007 15.2904 34.2007H32.0396C32.688 34.2007 33.2283 34.6871 33.2283 35.3894Z" fill="#5C9EDC"/>
<path d="M21.828 48.1941C21.6659 48.1941 21.5038 48.1402 21.3957 48.0322L18.0999 44.4121C17.8838 44.196 17.8838 43.818 18.154 43.5478C18.3701 43.3317 18.7483 43.3315 19.0184 43.6016L21.882 46.7355L28.4196 39.5494C28.6357 39.3333 29.0139 39.2795 29.2841 39.4956C29.5002 39.7117 29.5542 40.0897 29.3381 40.3598L22.3683 48.0322C22.1522 48.0862 21.9901 48.1941 21.828 48.1941Z" fill="#163459"/>
<path d="M92.823 17.5597C92.823 27.231 84.9347 35.1193 75.2634 35.1193C65.5921 35.1193 57.7037 27.231 57.7037 17.5597C57.7037 7.88834 65.538 0 75.2634 0C84.9887 0 92.823 7.83431 92.823 17.5597Z" fill="#5C9EDC"/>
<path d="M77.3165 17.5596C77.3165 18.6943 76.398 19.6127 75.2633 19.6127C74.1287 19.6127 73.2102 18.6943 73.2102 17.5596C73.2102 16.425 74.1287 15.5063 75.2633 15.5063C76.398 15.5063 77.3165 16.425 77.3165 17.5596Z" fill="#5C9EDC"/>
<path d="M75.3174 20.1532C73.9127 20.1532 72.724 18.9647 72.724 17.5599C72.724 16.1551 73.9127 14.9663 75.3174 14.9663C76.7222 14.9663 77.9108 16.1551 77.9108 17.5599C77.8568 18.9647 76.7222 20.1532 75.3174 20.1532ZM75.3174 16.0469C74.507 16.0469 73.8586 16.6954 73.8586 17.5058C73.8586 18.3163 74.507 19.0185 75.3174 19.0185C76.1279 19.0185 76.8303 18.3703 76.8303 17.5058C76.7762 16.7494 76.1279 16.0469 75.3174 16.0469Z" fill="#163459"/>
<path d="M75.3174 16.0467C74.9932 16.0467 74.7771 15.8306 74.7771 15.5064V8.69887C74.7771 8.37469 74.9932 8.15857 75.3174 8.15857C75.6416 8.15857 75.8577 8.37469 75.8577 8.69887V15.5064C75.8577 15.8306 75.5875 16.0467 75.3174 16.0467Z" fill="#163459"/>
<path d="M75.3174 5.24053C74.9932 5.24053 74.7771 5.02441 74.7771 4.70023V3.29567C74.7771 2.97149 74.9932 2.75537 75.3174 2.75537C75.6416 2.75537 75.8577 2.97149 75.8577 3.29567V4.70023C75.8577 5.02441 75.5875 5.24053 75.3174 5.24053Z" fill="#163459"/>
<path d="M75.3174 32.3094C74.9932 32.3094 74.7771 32.0933 74.7771 31.7691V30.3643C74.7771 30.0401 74.9932 29.824 75.3174 29.824C75.6416 29.824 75.8577 30.0401 75.8577 30.3643V31.7691C75.8577 32.0933 75.5875 32.3094 75.3174 32.3094Z" fill="#163459"/>
<path d="M66.1864 9.02285C66.0243 9.02285 65.9162 8.96893 65.8081 8.86087L64.8356 7.88844C64.6195 7.67232 64.6195 7.34793 64.8356 7.13182C65.0517 6.9157 65.3759 6.9157 65.592 7.13182L66.5646 8.10451C66.7807 8.32063 66.7807 8.64475 66.5646 8.86087C66.5105 8.96893 66.3484 9.02285 66.1864 9.02285Z" fill="#163459"/>
<path d="M85.3669 28.1497C85.2048 28.1497 85.0967 28.0955 84.9887 27.9874L84.0162 27.015C83.8 26.7989 83.8 26.4748 84.0162 26.2586C84.2323 26.0425 84.5565 26.0425 84.7726 26.2586L85.7451 27.2311C85.9612 27.4472 85.9612 27.7713 85.7451 27.9874C85.637 28.0955 85.475 28.1497 85.3669 28.1497Z" fill="#163459"/>
<path d="M62.4583 18.1H61.0535C60.7294 18.1 60.5132 17.8839 60.5132 17.5597C60.5132 17.2355 60.7294 17.0194 61.0535 17.0194H62.4583C62.7825 17.0194 62.9986 17.2355 62.9986 17.5597C62.9986 17.8839 62.7285 18.1 62.4583 18.1Z" fill="#163459"/>
<path d="M89.5272 18.1H88.1224C87.7982 18.1 87.5821 17.8839 87.5821 17.5597C87.5821 17.2355 87.7982 17.0194 88.1224 17.0194H89.5272C89.8513 17.0194 90.0675 17.2355 90.0675 17.5597C90.0675 17.8839 89.8513 18.1 89.5272 18.1Z" fill="#163459"/>
<path d="M65.2138 28.1497C65.0517 28.1497 64.9437 28.0955 64.8356 27.9874C64.6195 27.7713 64.6195 27.4472 64.8356 27.2311L65.8081 26.2586C66.0243 26.0425 66.3484 26.0425 66.5646 26.2586C66.7807 26.4748 66.7807 26.7989 66.5646 27.015L65.592 27.9874C65.484 28.0955 65.3759 28.1497 65.2138 28.1497Z" fill="#163459"/>
<path d="M84.3944 9.02285C84.2323 9.02285 84.1242 8.96893 84.0162 8.86087C83.8 8.64475 83.8 8.32063 84.0162 8.10451L84.9887 7.13182C85.2048 6.9157 85.529 6.9157 85.7451 7.13182C85.9612 7.34793 85.9612 7.67232 85.7451 7.88844L84.7726 8.86087C84.6645 8.96893 84.5024 9.02285 84.3944 9.02285Z" fill="#163459"/>
<path d="M73.2642 18.1H67.1589C66.8347 18.1 66.6186 17.8839 66.6186 17.5597C66.6186 17.2355 66.8347 17.0194 67.1589 17.0194H73.2642C73.5884 17.0194 73.8045 17.2355 73.8045 17.5597C73.8045 17.8839 73.5884 18.1 73.2642 18.1Z" fill="#163459"/>
</svg>
