<svg width="104" height="120" viewBox="0 0 104 120" fill="none" xmlns="http://www.w3.org/2000/svg">
<path d="M65.9704 27.9497C63.8345 27.9153 61.7331 27.743 59.6317 27.3983C59.425 27.3639 59.2528 27.3294 59.0461 27.2949C58.1848 27.1571 57.3236 26.9848 56.4968 26.8125C55.4289 26.5712 54.361 26.2955 53.3275 25.9509L36.0341 20.678L35.4484 20.5057C34.5183 20.1611 33.5537 19.9888 32.5547 19.9888C27.973 19.9888 24.2525 23.504 24.0113 27.9842H65.9704H66.9349C66.6249 27.9842 66.2804 27.9842 65.9704 27.9497Z" fill="#EEB098"/>
<path d="M79.9561 26.1572C72.6529 27.7425 69.7936 27.9838 66.9344 27.9838H79.9561V26.1572Z" fill="#EEB098"/>
<path d="M19.9804 31.9818C17.4312 31.9818 15.1576 33.188 13.6763 35.049L13.2973 33.9462C13.0906 33.2914 12.8839 32.6366 12.7461 31.9818H14.3308C15.2954 31.9818 16.1221 31.2925 16.2944 30.3965L17.879 22.4355C21.4962 20.3677 23.9421 16.4389 23.9421 11.9932C23.9421 9.54628 23.2187 7.30618 21.9785 5.41071C26.3535 2.03332 31.8309 0 37.7906 0C39.2375 0 40.6844 0.0689262 42.1312 0.206779L74.9612 3.65309C76.9248 3.85987 78.9229 3.96326 80.9209 3.96326C85.5716 3.96326 90.2222 3.37739 94.735 2.27457L95.9407 1.9644V14.6468C95.9407 21.6428 93.2882 28.3287 88.4997 33.3948C87.1907 32.4987 85.606 31.9818 83.9525 31.9818H79.9564V27.984V26.1575V26.123C72.6531 27.7083 69.7939 27.984 66.9346 27.984C62.3184 27.984 57.7022 27.2948 53.2927 25.9507L35.9648 20.6779L35.3792 20.5056C34.4491 20.1609 33.4845 19.9886 32.4855 19.9886C27.9726 19.9886 24.2521 23.5038 24.011 27.984C23.9765 28.1564 23.9765 28.2942 23.9765 28.501V32.0162L19.9804 31.9818Z" fill="#163459"/>
<path d="M88.5 33.4289C90.567 34.8763 91.945 37.2888 91.945 40.0113C91.945 42.217 91.0493 44.2158 89.6024 45.6633C88.1555 47.1108 86.1575 48.0068 83.9528 48.0068H79.9567V31.9814H83.9528C85.6408 31.9814 87.2254 32.5329 88.5 33.4289Z" fill="#EEB098"/>
<path d="M79.9565 52.0053V56.003C79.9565 65.1702 73.7902 72.9244 65.3501 75.2679C64.9023 75.4057 64.42 75.5091 63.9377 75.6125C62.6631 75.8882 61.354 76.0261 59.9761 76.0261H51.9839H43.9917C42.6481 76.0261 41.3046 75.8882 40.03 75.6125C39.5477 75.5091 39.0654 75.4057 38.6176 75.2679C30.1776 72.9244 24.0112 65.2047 24.0112 56.003V52.0053H47.9878C47.9878 50.9025 48.4356 49.903 49.159 49.1793C49.8825 48.4556 50.8815 48.0076 51.9839 48.0076C53.0862 48.0076 54.0853 48.4556 54.8087 49.1793C55.5321 49.903 55.98 50.9025 55.98 52.0053H79.9565Z" fill="#EEB098"/>
<path d="M23.9768 31.9814V47.9723H19.9807C17.7759 47.9723 15.7779 47.0763 14.331 45.6288C12.8841 44.1814 11.9885 42.1825 11.9885 39.9769C11.9885 38.1159 12.643 36.4272 13.6765 35.0487C15.1233 33.1532 17.4314 31.9814 19.9807 31.9814H23.9768Z" fill="#EEB098"/>
<path d="M79.9563 52.0048H55.9797C55.9797 50.902 55.5318 49.9025 54.8084 49.1788C54.085 48.4551 53.0859 48.0071 51.9836 48.0071C50.8812 48.0071 49.8822 48.4551 49.1587 49.1788C48.4353 49.9025 47.9875 50.902 47.9875 52.0048H23.9764V48.0071V31.9817V28.501C23.9764 28.3286 23.9764 28.1563 24.0109 27.984H66.9345H79.9563V31.9817V47.9726V52.0048Z" fill="#5C9EDC"/>
<path d="M17.9133 22.436L16.3286 30.397C16.1564 31.3275 15.3296 31.9823 14.365 31.9823H12.7804H9.64552C8.68094 31.9823 7.85416 31.2931 7.68192 30.397L6.09726 22.436C7.81972 23.4355 9.85221 23.9869 12.0225 23.9869C14.1928 23.9869 16.1564 23.4355 17.9133 22.436Z" fill="#1C427B"/>
<path d="M11.9883 23.9863C9.818 23.9863 7.81995 23.4349 6.06304 22.4355C2.44589 20.3677 0 16.4389 0 11.9932C0 5.37624 5.37406 0 11.9883 0C16.1566 0 19.8771 2.17118 22.013 5.41071C23.2876 7.30618 23.9766 9.58074 23.9766 11.9932C23.9766 16.4389 21.5307 20.3677 17.9135 22.4355C16.1566 23.4349 14.1586 23.9863 11.9883 23.9863Z" fill="#F0CA50"/>
<path d="M11.9885 15.9909C14.1955 15.9909 15.9846 14.2011 15.9846 11.9932C15.9846 9.78532 14.1955 7.99548 11.9885 7.99548C9.78151 7.99548 7.9924 9.78532 7.9924 11.9932C7.9924 14.2011 9.78151 15.9909 11.9885 15.9909Z" fill="#F0CA50"/>
<path d="M53.9811 83.9868L57.426 92.6371V92.6715C56.1514 94.2224 54.7734 95.6698 53.2232 96.9794L51.983 98.0133L50.7428 96.9794C49.1926 95.6698 47.7802 94.2568 46.54 92.6715V92.6371L49.985 83.9868H53.9811Z" fill="#163459"/>
<path d="M56.2557 79.4031L53.982 83.9866H49.9859L47.7123 79.4031L51.984 75.9912L56.2557 79.4031Z" fill="#163459"/>
<path d="M53.9813 83.9872L56.255 79.4036L62.1802 84.1595C61.0778 87.2267 59.4932 90.0871 57.4262 92.6374L53.9813 83.9872Z" fill="#F0CA50"/>
<path d="M41.7868 84.1595L47.7121 79.4036L49.9857 83.9872L46.5408 92.6374C44.4738 90.0871 42.8892 87.2267 41.7868 84.1595Z" fill="#F0CA50"/>
<path d="M56.2554 79.4035L51.9837 75.9917H59.9759C61.3194 75.9917 62.6629 75.8538 63.9375 75.5781C63.7653 78.542 63.1796 81.4024 62.1806 84.125L56.2554 79.4035Z" fill="#EE4D4A"/>
<path d="M43.9911 75.9907H51.9833L47.7116 79.4025L41.7864 84.1584C40.7874 81.4358 40.2017 78.5754 40.0295 75.6116C41.3041 75.8528 42.6132 75.9907 43.9911 75.9907Z" fill="#EE4D4A"/>
<path d="M71.9637 112.005V96.0139V88.0184H79.2325L65.3495 75.2671C64.9016 75.4049 64.4194 75.5083 63.9371 75.6117C63.7648 78.5755 63.1792 81.436 62.1802 84.1586C61.0778 87.2258 59.4931 90.0862 57.4262 92.6365V92.671C56.1516 94.2218 54.7736 95.6693 53.2234 96.9788L51.9832 98.0127L50.7431 96.9788C49.1928 95.6693 47.7804 94.2563 46.5403 92.671V92.6365C44.5078 90.0862 42.8887 87.2258 41.7863 84.1586C40.7873 81.436 40.2016 78.5755 40.0294 75.6117C39.5471 75.5083 39.0648 75.4049 38.617 75.2671L20.2211 92.154L27.5932 98.3229C30.3836 100.666 32.0027 104.113 32.0027 107.731V108.007V120H51.9832H75.9598V116.002C73.7551 116.002 71.9637 114.176 71.9637 112.005Z" fill="#FDDCCF"/>
<path d="M95.8965 87.9844H103.889V95.9798H95.8965V87.9844Z" fill="#5C9EDC"/>
<path d="M84.0543 87.9844H92.0465V95.9798H84.0543V87.9844Z" fill="#5C9EDC"/>
<path d="M79.9559 87.9844V95.9798H71.9637V87.9844H79.2325H79.9559Z" fill="#5C9EDC"/>
<path d="M31.9692 107.732C31.9692 107.801 31.9692 107.904 31.9348 108.008C26.6296 107.973 26.6296 104.01 21.29 104.01C15.9504 104.01 15.9504 108.008 10.6108 108.008C5.47786 108.008 5.30561 104.32 0.551636 104.044C1.24062 101.839 2.54969 99.8744 4.37549 98.358L11.9543 92.0513V80.0581H19.9465V92.0513L20.1532 92.2236L27.5253 98.3925C30.3501 100.667 31.9692 104.079 31.9692 107.732Z" fill="#5C9EDC"/>
<path d="M103.923 95.9806V112.006C103.923 114.212 102.132 116.004 99.9269 116.004C97.7221 116.004 95.9308 114.212 95.9308 112.006V96.0151H103.923V95.9806Z" fill="#163459"/>
<path d="M92.0465 95.9806V112.006C92.0465 114.212 90.2551 116.004 88.0504 116.004C85.8456 116.004 84.0543 114.212 84.0543 112.006V96.0151H92.0465V95.9806Z" fill="#163459"/>
<path d="M79.9559 95.9806V112.006C79.9559 114.212 78.1646 116.004 75.9598 116.004C73.7551 116.004 71.9637 114.212 71.9637 112.006V96.0151H79.9559V95.9806Z" fill="#163459"/>
<path d="M31.9688 107.972C31.8654 114.624 26.4225 119.966 19.7393 119.966H12.2639C8.88787 119.966 5.8219 118.622 3.58271 116.381C1.37796 114.176 0 111.074 0 107.697C0 106.422 0.206695 105.147 0.585635 103.975H0.620084C5.37406 104.285 5.54631 107.938 10.6792 107.938C16.0188 107.938 16.0188 103.94 21.3585 103.94C26.6636 103.975 26.6636 107.972 31.9688 107.972Z" fill="#163459"/>
<path d="M56.5569 64.6071C56.5569 61.8978 54.5913 61.6322 52.1477 61.5791C49.7041 61.5791 47.7385 61.8447 47.7385 64.554C47.7385 67.2632 49.7041 69.4944 52.1477 69.4944C54.5913 69.5475 56.5569 67.3163 56.5569 64.6071Z" fill="#163459"/>
<path d="M36.3359 42.4932C37.4515 42.4932 38.3546 41.5901 38.3546 40.4745C38.3546 39.5183 39.1514 38.7746 40.0545 38.7746C41.0107 38.7746 41.8075 39.5714 41.7544 40.5276C41.7544 41.6432 42.6575 42.5463 43.7731 42.5463C44.8886 42.5463 45.7917 41.6432 45.7917 40.5276C45.7917 37.3403 43.2418 34.7373 40.0545 34.7373C36.8671 34.7373 34.3173 37.2872 34.3173 40.4745C34.3173 41.5901 35.2203 42.4932 36.3359 42.4932Z" fill="#163459"/>
<path d="M60.2948 42.5996C61.4104 42.5996 62.3135 41.6965 62.3135 40.581C62.3135 40.1029 62.4729 39.6779 62.8447 39.3592C63.1635 39.0404 63.5884 38.881 64.0665 38.881C65.0228 38.881 65.8196 39.6779 65.7665 40.6341C65.7665 41.7497 66.6695 42.6527 67.7851 42.6527C68.9007 42.6527 69.8038 41.7497 69.8038 40.6341C69.8038 37.4467 67.2539 34.8438 64.0665 34.8438C62.526 34.8438 61.0917 35.4281 60.0292 36.5436C58.9137 37.6061 58.3293 39.0935 58.3293 40.6341C58.3293 41.6965 59.1793 42.5996 60.2948 42.5996Z" fill="#163459"/>
</svg>
