<svg width="347" height="347" viewBox="0 0 347 347" fill="none" xmlns="http://www.w3.org/2000/svg">
<g opacity="0.2">
<path d="M346 173.5C346 268.769 268.769 346 173.5 346C78.2309 346 1.00001 268.769 1.00001 173.5C1 78.2308 78.2309 0.999997 173.5 0.999992C268.769 0.999988 346 78.2308 346 173.5Z" stroke="#545A5C" stroke-miterlimit="10"/>
<path d="M310 173.499C310 146.281 301.951 119.676 286.874 97.0533C271.797 74.4301 250.369 56.8068 225.305 46.4156C200.24 36.0243 172.667 33.3326 146.078 38.6812C119.488 44.0298 95.0777 57.1782 75.9392 76.4611C56.8006 95.744 43.7946 120.294 38.5683 147.001C33.342 173.708 36.1306 201.371 46.581 226.487C57.0313 251.602 74.6733 273.04 97.2723 288.085C119.871 303.129 146.411 311.104 173.529 310.999C209.772 310.859 244.483 296.31 270.061 270.539C295.639 244.768 310 209.874 310 173.499V173.499Z" stroke="#545A5C" stroke-miterlimit="10"/>
<path d="M273.999 173.499C273.998 153.401 268.061 133.756 256.94 117.053C245.818 100.35 230.013 87.3415 211.527 79.6751C193.041 72.0087 172.706 70.0299 153.1 73.9896C133.494 77.9492 115.499 87.6691 101.395 101.917C87.2912 116.166 77.7138 134.301 73.8767 154.025C70.0395 173.749 72.1152 194.173 79.8408 212.711C87.5663 231.248 100.594 247.063 117.273 258.152C133.951 269.241 153.53 275.104 173.528 274.999C186.767 274.999 199.875 272.37 212.099 267.262C224.323 262.155 235.423 254.67 244.759 245.238C254.095 235.806 261.485 224.612 266.503 212.301C271.521 199.989 274.068 186.803 273.999 173.499V173.499Z" stroke="#545A5C" stroke-miterlimit="10"/>
<path d="M237.998 173.498C237.997 160.521 234.172 147.836 227.006 137.053C219.84 126.271 209.657 117.876 197.749 112.934C185.842 107.993 172.746 106.727 160.123 109.298C147.5 111.869 135.919 118.16 126.85 127.374C117.782 136.588 111.633 148.308 109.185 161.049C106.737 173.79 108.1 186.976 113.101 198.935C118.101 210.894 126.515 221.086 137.273 228.219C148.031 235.352 160.65 239.103 173.527 238.998C182.038 238.998 190.465 237.3 198.322 234.002C206.178 230.704 213.309 225.871 219.303 219.781C225.296 213.692 230.034 206.467 233.243 198.523C236.452 190.58 238.068 182.074 237.998 173.498Z" stroke="#545A5C" stroke-miterlimit="10"/>
</g>
<path d="M220.633 288.927C220.633 288.927 227.794 300.185 236.624 298.761C236.624 298.761 227.837 304.391 227.869 314.985C227.869 314.985 223.587 307.25 212.261 305.271C212.261 305.271 219.976 303.393 220.633 288.927Z" fill="#8EC6D8"/>
<path d="M297.385 130C297.385 130 315.103 145.154 329 138.106C329 138.106 317.362 152.203 322.92 170C322.92 170 311.803 159.251 292 161.894C292 161.894 303.812 154.67 297.385 130Z" fill="#EE4D4A"/>
<path d="M254.463 327.686L253.314 317.149L263.851 316L265 326.537L254.463 327.686Z" fill="#F0CA50"/>
</svg>
