<svg width="11" height="12" viewBox="0 0 11 12" fill="none" xmlns="http://www.w3.org/2000/svg">
<path d="M9.82456 7.52316C9.16659 7.52316 8.52211 7.42043 7.9113 7.21887C7.61319 7.11614 7.27466 7.19529 7.07874 7.39516L5.86779 8.30969C4.47832 7.56809 3.58906 6.67937 2.85755 5.3L3.74737 4.11769C3.97137 3.89369 4.05166 3.56582 3.95566 3.25874C3.75242 2.644 3.64913 1.99895 3.64913 1.34211C3.64913 0.877816 3.27132 0.5 2.80703 0.5H0.842106C0.377816 0.5 0 0.877816 0 1.34211C0 6.75908 4.40758 11.1667 9.82456 11.1667C10.2889 11.1667 10.6667 10.7889 10.6667 10.3246V8.36527C10.6667 7.90098 10.2889 7.52316 9.82456 7.52316Z" fill="#5C9EDC"/>
</svg>
