<svg width="193" height="281" viewBox="0 0 193 281" fill="none" xmlns="http://www.w3.org/2000/svg">
<path d="M13.0024 201.019C15.3665 202.595 34.279 215.401 57.7227 208.111C65.1681 205.874 72.0117 201.983 77.7427 196.729C83.4737 191.476 87.9439 184.996 90.8196 177.773C92.0392 174.257 92.8973 170.627 93.3807 166.937L111.899 167.331C111.37 174.593 109.639 181.716 106.777 188.411C94.9567 215.992 67.573 225.054 64.4209 226.039C50.9423 230.187 36.5282 230.187 23.0497 226.039C14.6323 223.537 6.79697 219.385 0 213.825L13.0024 201.019Z" fill="#8EC6D8"/>
<path d="M73.0821 143.15L57.5156 151.219L65.5573 166.733L81.1238 158.664L73.0821 143.15Z" fill="#EE4D4A"/>
<path d="M37.0369 162.209L37.8249 172.257L13.7902 180.531L12.8052 170.484L37.0369 162.209Z" fill="#8EC6D8"/>
<g opacity="0.05">
<path opacity="0.64" d="M38.2999 220.849C38.2999 223.967 40.8272 226.494 43.9446 226.494C47.0621 226.494 49.5894 223.967 49.5894 220.849C49.5894 217.732 47.0621 215.205 43.9446 215.205C40.8272 215.205 38.2999 217.732 38.2999 220.849Z" fill="#1A1A1A"/>
<path opacity="0.64" d="M59.115 220.849C59.115 223.967 61.6421 226.494 64.7596 226.494C67.8771 226.494 70.4043 223.967 70.4043 220.849C70.4043 217.732 67.8771 215.205 64.7596 215.205C61.6421 215.205 59.115 217.732 59.115 220.849Z" fill="#1A1A1A"/>
<path opacity="0.64" d="M79.9299 220.849C79.9299 223.967 82.4571 226.494 85.5746 226.494C88.6921 226.494 91.2192 223.967 91.2192 220.849C91.2192 217.732 88.6921 215.205 85.5746 215.205C82.4571 215.205 79.9299 217.732 79.9299 220.849Z" fill="#1A1A1A"/>
<path opacity="0.64" d="M100.921 220.849C100.921 223.967 103.448 226.494 106.565 226.494C109.683 226.494 112.21 223.967 112.21 220.849C112.21 217.732 109.683 215.205 106.565 215.205C103.448 215.205 100.921 217.732 100.921 220.849Z" fill="#1A1A1A"/>
<path opacity="0.64" d="M38.2999 239.018C38.2999 242.136 40.8272 244.663 43.9446 244.663C47.0621 244.663 49.5894 242.136 49.5894 239.018C49.5894 235.901 47.0621 233.374 43.9446 233.374C40.8272 233.374 38.2999 235.901 38.2999 239.018Z" fill="#1A1A1A"/>
<path opacity="0.64" d="M59.115 239.018C59.115 242.136 61.6421 244.663 64.7596 244.663C67.8771 244.663 70.4043 242.136 70.4043 239.018C70.4043 235.901 67.8771 233.374 64.7596 233.374C61.6421 233.374 59.115 235.901 59.115 239.018Z" fill="#1A1A1A"/>
<path opacity="0.64" d="M79.9299 239.018C79.9299 242.136 82.4571 244.663 85.5746 244.663C88.6921 244.663 91.2192 242.136 91.2192 239.018C91.2192 235.901 88.6921 233.374 85.5746 233.374C82.4571 233.374 79.9299 235.901 79.9299 239.018Z" fill="#1A1A1A"/>
<path opacity="0.64" d="M100.921 239.018C100.921 242.136 103.448 244.663 106.565 244.663C109.683 244.663 112.21 242.136 112.21 239.018C112.21 235.901 109.683 233.374 106.565 233.374C103.448 233.374 100.921 235.901 100.921 239.018Z" fill="#1A1A1A"/>
<path opacity="0.64" d="M38.2999 257.187C38.2999 260.304 40.8272 262.831 43.9446 262.831C47.0621 262.831 49.5894 260.304 49.5894 257.187C49.5894 254.069 47.0621 251.542 43.9446 251.542C40.8272 251.542 38.2999 254.069 38.2999 257.187Z" fill="#1A1A1A"/>
<path opacity="0.64" d="M59.115 257.187C59.115 260.304 61.6421 262.831 64.7596 262.831C67.8771 262.831 70.4043 260.304 70.4043 257.187C70.4043 254.069 67.8771 251.542 64.7596 251.542C61.6421 251.542 59.115 254.069 59.115 257.187Z" fill="#1A1A1A"/>
<path opacity="0.64" d="M79.9299 257.187C79.9299 260.304 82.4571 262.831 85.5746 262.831C88.6921 262.831 91.2192 260.304 91.2192 257.187C91.2192 254.069 88.6921 251.542 85.5746 251.542C82.4571 251.542 79.9299 254.069 79.9299 257.187Z" fill="#1A1A1A"/>
<path opacity="0.64" d="M100.921 257.187C100.921 260.304 103.448 262.831 106.565 262.831C109.683 262.831 112.21 260.304 112.21 257.187C112.21 254.069 109.683 251.542 106.565 251.542C103.448 251.542 100.921 254.069 100.921 257.187Z" fill="#1A1A1A"/>
<path opacity="0.64" d="M38.2999 275.356C38.2999 278.473 40.8272 281 43.9446 281C47.0621 281 49.5894 278.473 49.5894 275.356C49.5894 272.238 47.0621 269.711 43.9446 269.711C40.8272 269.711 38.2999 272.238 38.2999 275.356Z" fill="#1A1A1A"/>
<path opacity="0.64" d="M59.115 275.356C59.115 278.473 61.6421 281 64.7596 281C67.8771 281 70.4043 278.473 70.4043 275.356C70.4043 272.238 67.8771 269.711 64.7596 269.711C61.6421 269.711 59.115 272.238 59.115 275.356Z" fill="#1A1A1A"/>
<path opacity="0.64" d="M79.9299 275.356C79.9299 278.473 82.4571 281 85.5746 281C88.6921 281 91.2192 278.473 91.2192 275.356C91.2192 272.238 88.6921 269.711 85.5746 269.711C82.4571 269.711 79.9299 272.238 79.9299 275.356Z" fill="#1A1A1A"/>
<path opacity="0.64" d="M100.921 275.356C100.921 278.473 103.448 281 106.565 281C109.683 281 112.21 278.473 112.21 275.356C112.21 272.238 109.683 269.711 106.565 269.711C103.448 269.711 100.921 272.238 100.921 275.356Z" fill="#1A1A1A"/>
<path opacity="0.64" d="M38.2999 148.879C38.2999 151.997 40.8272 154.524 43.9446 154.524C47.0621 154.524 49.5894 151.997 49.5894 148.879C49.5894 145.762 47.0621 143.234 43.9446 143.234C40.8272 143.234 38.2999 145.762 38.2999 148.879Z" fill="#1A1A1A"/>
<path opacity="0.64" d="M59.115 148.879C59.115 151.997 61.6421 154.524 64.7596 154.524C67.8771 154.524 70.4043 151.997 70.4043 148.879C70.4043 145.762 67.8771 143.234 64.7596 143.234C61.6421 143.234 59.115 145.762 59.115 148.879Z" fill="#1A1A1A"/>
<path opacity="0.64" d="M79.9299 148.879C79.9299 151.997 82.4571 154.524 85.5746 154.524C88.6921 154.524 91.2192 151.997 91.2192 148.879C91.2192 145.762 88.6921 143.234 85.5746 143.234C82.4571 143.234 79.9299 145.762 79.9299 148.879Z" fill="#1A1A1A"/>
<path opacity="0.64" d="M100.921 148.879C100.921 151.997 103.448 154.524 106.565 154.524C109.683 154.524 112.21 151.997 112.21 148.879C112.21 145.762 109.683 143.234 106.565 143.234C103.448 143.234 100.921 145.762 100.921 148.879Z" fill="#1A1A1A"/>
<path opacity="0.64" d="M38.2999 167.048C38.2999 170.166 40.8272 172.693 43.9446 172.693C47.0621 172.693 49.5894 170.166 49.5894 167.048C49.5894 163.931 47.0621 161.403 43.9446 161.403C40.8272 161.403 38.2999 163.931 38.2999 167.048Z" fill="#1A1A1A"/>
<path opacity="0.64" d="M59.115 167.048C59.115 170.166 61.6421 172.693 64.7596 172.693C67.8771 172.693 70.4043 170.166 70.4043 167.048C70.4043 163.931 67.8771 161.403 64.7596 161.403C61.6421 161.403 59.115 163.931 59.115 167.048Z" fill="#1A1A1A"/>
<path opacity="0.64" d="M79.9299 167.048C79.9299 170.166 82.4571 172.693 85.5746 172.693C88.6921 172.693 91.2192 170.166 91.2192 167.048C91.2192 163.931 88.6921 161.403 85.5746 161.403C82.4571 161.403 79.9299 163.931 79.9299 167.048Z" fill="#1A1A1A"/>
<path opacity="0.64" d="M100.921 167.048C100.921 170.166 103.448 172.693 106.565 172.693C109.683 172.693 112.21 170.166 112.21 167.048C112.21 163.931 109.683 161.403 106.565 161.403C103.448 161.403 100.921 163.931 100.921 167.048Z" fill="#1A1A1A"/>
<path opacity="0.64" d="M38.2999 185.041C38.2999 188.158 40.8272 190.685 43.9446 190.685C47.0621 190.685 49.5894 188.158 49.5894 185.041C49.5894 181.923 47.0621 179.396 43.9446 179.396C40.8272 179.396 38.2999 181.923 38.2999 185.041Z" fill="#1A1A1A"/>
<path opacity="0.64" d="M59.115 185.041C59.115 188.158 61.6421 190.685 64.7596 190.685C67.8771 190.685 70.4043 188.158 70.4043 185.041C70.4043 181.923 67.8771 179.396 64.7596 179.396C61.6421 179.396 59.115 181.923 59.115 185.041Z" fill="#1A1A1A"/>
<path opacity="0.64" d="M79.9299 185.041C79.9299 188.158 82.4571 190.685 85.5746 190.685C88.6921 190.685 91.2192 188.158 91.2192 185.041C91.2192 181.923 88.6921 179.396 85.5746 179.396C82.4571 179.396 79.9299 181.923 79.9299 185.041Z" fill="#1A1A1A"/>
<path opacity="0.64" d="M100.921 185.041C100.921 188.158 103.448 190.685 106.565 190.685C109.683 190.685 112.21 188.158 112.21 185.041C112.21 181.923 109.683 179.396 106.565 179.396C103.448 179.396 100.921 181.923 100.921 185.041Z" fill="#1A1A1A"/>
<path opacity="0.64" d="M38.2999 203.21C38.2999 206.327 40.8272 208.854 43.9446 208.854C47.0621 208.854 49.5894 206.327 49.5894 203.21C49.5894 200.092 47.0621 197.565 43.9446 197.565C40.8272 197.565 38.2999 200.092 38.2999 203.21Z" fill="#1A1A1A"/>
<path opacity="0.64" d="M59.115 203.21C59.115 206.327 61.6421 208.854 64.7596 208.854C67.8771 208.854 70.4043 206.327 70.4043 203.21C70.4043 200.092 67.8771 197.565 64.7596 197.565C61.6421 197.565 59.115 200.092 59.115 203.21Z" fill="#1A1A1A"/>
<path opacity="0.64" d="M79.9299 203.21C79.9299 206.327 82.4571 208.854 85.5746 208.854C88.6921 208.854 91.2192 206.327 91.2192 203.21C91.2192 200.092 88.6921 197.565 85.5746 197.565C82.4571 197.565 79.9299 200.092 79.9299 203.21Z" fill="#1A1A1A"/>
<path opacity="0.64" d="M100.921 203.21C100.921 206.327 103.448 208.854 106.565 208.854C109.683 208.854 112.21 206.327 112.21 203.21C112.21 200.092 109.683 197.565 106.565 197.565C103.448 197.565 100.921 200.092 100.921 203.21Z" fill="#1A1A1A"/>
<path opacity="0.64" d="M119.09 220.849C119.09 223.967 121.617 226.494 124.734 226.494C127.852 226.494 130.379 223.967 130.379 220.849C130.379 217.732 127.852 215.205 124.734 215.205C121.617 215.205 119.09 217.732 119.09 220.849Z" fill="#1A1A1A"/>
<path opacity="0.64" d="M139.905 220.849C139.905 223.967 142.432 226.494 145.549 226.494C148.667 226.494 151.194 223.967 151.194 220.849C151.194 217.732 148.667 215.205 145.549 215.205C142.432 215.205 139.905 217.732 139.905 220.849Z" fill="#1A1A1A"/>
<path opacity="0.64" d="M160.896 220.849C160.896 223.967 163.423 226.494 166.54 226.494C169.658 226.494 172.185 223.967 172.185 220.849C172.185 217.732 169.658 215.205 166.54 215.205C163.423 215.205 160.896 217.732 160.896 220.849Z" fill="#1A1A1A"/>
<path opacity="0.64" d="M181.711 220.849C181.711 223.967 184.238 226.494 187.355 226.494C190.473 226.494 193 223.967 193 220.849C193 217.732 190.473 215.205 187.355 215.205C184.238 215.205 181.711 217.732 181.711 220.849Z" fill="#1A1A1A"/>
<path opacity="0.64" d="M119.09 239.018C119.09 242.136 121.617 244.663 124.734 244.663C127.852 244.663 130.379 242.136 130.379 239.018C130.379 235.901 127.852 233.374 124.734 233.374C121.617 233.374 119.09 235.901 119.09 239.018Z" fill="#1A1A1A"/>
<path opacity="0.64" d="M139.905 239.018C139.905 242.136 142.432 244.663 145.549 244.663C148.667 244.663 151.194 242.136 151.194 239.018C151.194 235.901 148.667 233.374 145.549 233.374C142.432 233.374 139.905 235.901 139.905 239.018Z" fill="#1A1A1A"/>
<path opacity="0.64" d="M160.896 239.018C160.896 242.136 163.423 244.663 166.54 244.663C169.658 244.663 172.185 242.136 172.185 239.018C172.185 235.901 169.658 233.374 166.54 233.374C163.423 233.374 160.896 235.901 160.896 239.018Z" fill="#1A1A1A"/>
<path opacity="0.64" d="M181.711 239.018C181.711 242.136 184.238 244.663 187.355 244.663C190.473 244.663 193 242.136 193 239.018C193 235.901 190.473 233.374 187.355 233.374C184.238 233.374 181.711 235.901 181.711 239.018Z" fill="#1A1A1A"/>
<path opacity="0.64" d="M119.09 257.187C119.09 260.304 121.617 262.831 124.734 262.831C127.852 262.831 130.379 260.304 130.379 257.187C130.379 254.069 127.852 251.542 124.734 251.542C121.617 251.542 119.09 254.069 119.09 257.187Z" fill="#1A1A1A"/>
<path opacity="0.64" d="M139.905 257.187C139.905 260.304 142.432 262.831 145.549 262.831C148.667 262.831 151.194 260.304 151.194 257.187C151.194 254.069 148.667 251.542 145.549 251.542C142.432 251.542 139.905 254.069 139.905 257.187Z" fill="#1A1A1A"/>
<path opacity="0.64" d="M160.896 257.187C160.896 260.304 163.423 262.831 166.54 262.831C169.658 262.831 172.185 260.304 172.185 257.187C172.185 254.069 169.658 251.542 166.54 251.542C163.423 251.542 160.896 254.069 160.896 257.187Z" fill="#1A1A1A"/>
<path opacity="0.64" d="M181.711 257.187C181.711 260.304 184.238 262.831 187.355 262.831C190.473 262.831 193 260.304 193 257.187C193 254.069 190.473 251.542 187.355 251.542C184.238 251.542 181.711 254.069 181.711 257.187Z" fill="#1A1A1A"/>
<path opacity="0.64" d="M119.09 275.356C119.09 278.473 121.617 281 124.734 281C127.852 281 130.379 278.473 130.379 275.356C130.379 272.238 127.852 269.711 124.734 269.711C121.617 269.711 119.09 272.238 119.09 275.356Z" fill="#1A1A1A"/>
<path opacity="0.64" d="M139.905 275.356C139.905 278.473 142.432 281 145.549 281C148.667 281 151.194 278.473 151.194 275.356C151.194 272.238 148.667 269.711 145.549 269.711C142.432 269.711 139.905 272.238 139.905 275.356Z" fill="#1A1A1A"/>
<path opacity="0.64" d="M160.896 275.356C160.896 278.473 163.423 281 166.54 281C169.658 281 172.185 278.473 172.185 275.356C172.185 272.238 169.658 269.711 166.54 269.711C163.423 269.711 160.896 272.238 160.896 275.356Z" fill="#1A1A1A"/>
<path opacity="0.64" d="M181.711 275.356C181.711 278.473 184.238 281 187.355 281C190.473 281 193 278.473 193 275.356C193 272.238 190.473 269.711 187.355 269.711C184.238 269.711 181.711 272.238 181.711 275.356Z" fill="#1A1A1A"/>
<path opacity="0.64" d="M119.09 148.879C119.09 151.997 121.617 154.524 124.734 154.524C127.852 154.524 130.379 151.997 130.379 148.879C130.379 145.762 127.852 143.234 124.734 143.234C121.617 143.234 119.09 145.762 119.09 148.879Z" fill="#1A1A1A"/>
<path opacity="0.64" d="M139.905 148.879C139.905 151.997 142.432 154.524 145.549 154.524C148.667 154.524 151.194 151.997 151.194 148.879C151.194 145.762 148.667 143.234 145.549 143.234C142.432 143.234 139.905 145.762 139.905 148.879Z" fill="#1A1A1A"/>
<path opacity="0.64" d="M160.896 148.879C160.896 151.997 163.423 154.524 166.54 154.524C169.658 154.524 172.185 151.997 172.185 148.879C172.185 145.762 169.658 143.234 166.54 143.234C163.423 143.234 160.896 145.762 160.896 148.879Z" fill="#1A1A1A"/>
<path opacity="0.64" d="M181.711 148.879C181.711 151.997 184.238 154.524 187.355 154.524C190.473 154.524 193 151.997 193 148.879C193 145.762 190.473 143.234 187.355 143.234C184.238 143.234 181.711 145.762 181.711 148.879Z" fill="#1A1A1A"/>
<path opacity="0.64" d="M119.09 167.048C119.09 170.166 121.617 172.693 124.734 172.693C127.852 172.693 130.379 170.166 130.379 167.048C130.379 163.931 127.852 161.403 124.734 161.403C121.617 161.403 119.09 163.931 119.09 167.048Z" fill="#1A1A1A"/>
<path opacity="0.64" d="M139.905 167.048C139.905 170.166 142.432 172.693 145.549 172.693C148.667 172.693 151.194 170.166 151.194 167.048C151.194 163.931 148.667 161.403 145.549 161.403C142.432 161.403 139.905 163.931 139.905 167.048Z" fill="#1A1A1A"/>
<path opacity="0.64" d="M160.896 167.048C160.896 170.166 163.423 172.693 166.54 172.693C169.658 172.693 172.185 170.166 172.185 167.048C172.185 163.931 169.658 161.403 166.54 161.403C163.423 161.403 160.896 163.931 160.896 167.048Z" fill="#1A1A1A"/>
<path opacity="0.64" d="M181.711 167.048C181.711 170.166 184.238 172.693 187.355 172.693C190.473 172.693 193 170.166 193 167.048C193 163.931 190.473 161.403 187.355 161.403C184.238 161.403 181.711 163.931 181.711 167.048Z" fill="#1A1A1A"/>
<path opacity="0.64" d="M119.09 185.041C119.09 188.158 121.617 190.685 124.734 190.685C127.852 190.685 130.379 188.158 130.379 185.041C130.379 181.923 127.852 179.396 124.734 179.396C121.617 179.396 119.09 181.923 119.09 185.041Z" fill="#1A1A1A"/>
<path opacity="0.64" d="M139.905 185.041C139.905 188.158 142.432 190.685 145.549 190.685C148.667 190.685 151.194 188.158 151.194 185.041C151.194 181.923 148.667 179.396 145.549 179.396C142.432 179.396 139.905 181.923 139.905 185.041Z" fill="#1A1A1A"/>
<path opacity="0.64" d="M160.896 185.041C160.896 188.158 163.423 190.685 166.54 190.685C169.658 190.685 172.185 188.158 172.185 185.041C172.185 181.923 169.658 179.396 166.54 179.396C163.423 179.396 160.896 181.923 160.896 185.041Z" fill="#1A1A1A"/>
<path opacity="0.64" d="M181.711 185.041C181.711 188.158 184.238 190.685 187.355 190.685C190.473 190.685 193 188.158 193 185.041C193 181.923 190.473 179.396 187.355 179.396C184.238 179.396 181.711 181.923 181.711 185.041Z" fill="#1A1A1A"/>
<path opacity="0.64" d="M119.09 203.21C119.09 206.327 121.617 208.854 124.734 208.854C127.852 208.854 130.379 206.327 130.379 203.21C130.379 200.092 127.852 197.565 124.734 197.565C121.617 197.565 119.09 200.092 119.09 203.21Z" fill="#1A1A1A"/>
<path opacity="0.64" d="M139.905 203.21C139.905 206.327 142.432 208.854 145.549 208.854C148.667 208.854 151.194 206.327 151.194 203.21C151.194 200.092 148.667 197.565 145.549 197.565C142.432 197.565 139.905 200.092 139.905 203.21Z" fill="#1A1A1A"/>
<path opacity="0.64" d="M160.896 203.21C160.896 206.327 163.423 208.854 166.54 208.854C169.658 208.854 172.185 206.327 172.185 203.21C172.185 200.092 169.658 197.565 166.54 197.565C163.423 197.565 160.896 200.092 160.896 203.21Z" fill="#1A1A1A"/>
<path opacity="0.64" d="M181.711 203.21C181.711 206.327 184.238 208.854 187.355 208.854C190.473 208.854 193 206.327 193 203.21C193 200.092 190.473 197.565 187.355 197.565C184.238 197.565 181.711 200.092 181.711 203.21Z" fill="#1A1A1A"/>
<path opacity="0.64" d="M38.2999 77.7907C38.2999 80.9082 40.8272 83.4354 43.9446 83.4354C47.0621 83.4354 49.5894 80.9082 49.5894 77.7907C49.5894 74.6732 47.0621 72.146 43.9446 72.146C40.8272 72.146 38.2999 74.6732 38.2999 77.7907Z" fill="#1A1A1A"/>
<path opacity="0.64" d="M59.115 77.7907C59.115 80.9082 61.6421 83.4354 64.7596 83.4354C67.8771 83.4354 70.4043 80.9082 70.4043 77.7907C70.4043 74.6732 67.8771 72.146 64.7596 72.146C61.6421 72.146 59.115 74.6732 59.115 77.7907Z" fill="#1A1A1A"/>
<path opacity="0.64" d="M79.9299 77.7907C79.9299 80.9082 82.4571 83.4354 85.5746 83.4354C88.6921 83.4354 91.2192 80.9082 91.2192 77.7907C91.2192 74.6732 88.6921 72.146 85.5746 72.146C82.4571 72.146 79.9299 74.6732 79.9299 77.7907Z" fill="#1A1A1A"/>
<path opacity="0.64" d="M100.921 77.7907C100.921 80.9082 103.448 83.4354 106.565 83.4354C109.683 83.4354 112.21 80.9082 112.21 77.7907C112.21 74.6732 109.683 72.146 106.565 72.146C103.448 72.146 100.921 74.6732 100.921 77.7907Z" fill="#1A1A1A"/>
<path opacity="0.64" d="M38.2999 95.7834C38.2999 98.9009 40.8272 101.428 43.9446 101.428C47.0621 101.428 49.5894 98.9009 49.5894 95.7834C49.5894 92.6659 47.0621 90.1387 43.9446 90.1387C40.8272 90.1387 38.2999 92.6659 38.2999 95.7834Z" fill="#1A1A1A"/>
<path opacity="0.64" d="M59.115 95.7834C59.115 98.9009 61.6421 101.428 64.7596 101.428C67.8771 101.428 70.4043 98.9009 70.4043 95.7834C70.4043 92.6659 67.8771 90.1387 64.7596 90.1387C61.6421 90.1387 59.115 92.6659 59.115 95.7834Z" fill="#1A1A1A"/>
<path opacity="0.64" d="M79.9299 95.7834C79.9299 98.9009 82.4571 101.428 85.5746 101.428C88.6921 101.428 91.2192 98.9009 91.2192 95.7834C91.2192 92.6659 88.6921 90.1387 85.5746 90.1387C82.4571 90.1387 79.9299 92.6659 79.9299 95.7834Z" fill="#1A1A1A"/>
<path opacity="0.64" d="M100.921 95.7834C100.921 98.9009 103.448 101.428 106.565 101.428C109.683 101.428 112.21 98.9009 112.21 95.7834C112.21 92.6659 109.683 90.1387 106.565 90.1387C103.448 90.1387 100.921 92.6659 100.921 95.7834Z" fill="#1A1A1A"/>
<path opacity="0.64" d="M38.2999 113.952C38.2999 117.07 40.8272 119.597 43.9446 119.597C47.0621 119.597 49.5894 117.07 49.5894 113.952C49.5894 110.835 47.0621 108.308 43.9446 108.308C40.8272 108.308 38.2999 110.835 38.2999 113.952Z" fill="#1A1A1A"/>
<path opacity="0.64" d="M59.115 113.952C59.115 117.07 61.6421 119.597 64.7596 119.597C67.8771 119.597 70.4043 117.07 70.4043 113.952C70.4043 110.835 67.8771 108.308 64.7596 108.308C61.6421 108.308 59.115 110.835 59.115 113.952Z" fill="#1A1A1A"/>
<path opacity="0.64" d="M79.9299 113.952C79.9299 117.07 82.4571 119.597 85.5746 119.597C88.6921 119.597 91.2192 117.07 91.2192 113.952C91.2192 110.835 88.6921 108.308 85.5746 108.308C82.4571 108.308 79.9299 110.835 79.9299 113.952Z" fill="#1A1A1A"/>
<path opacity="0.64" d="M100.921 113.952C100.921 117.07 103.448 119.597 106.565 119.597C109.683 119.597 112.21 117.07 112.21 113.952C112.21 110.835 109.683 108.308 106.565 108.308C103.448 108.308 100.921 110.835 100.921 113.952Z" fill="#1A1A1A"/>
<path opacity="0.64" d="M38.2999 132.121C38.2999 135.239 40.8272 137.766 43.9446 137.766C47.0621 137.766 49.5894 135.239 49.5894 132.121C49.5894 129.004 47.0621 126.477 43.9446 126.477C40.8272 126.477 38.2999 129.004 38.2999 132.121Z" fill="#1A1A1A"/>
<path opacity="0.64" d="M59.115 132.121C59.115 135.239 61.6421 137.766 64.7596 137.766C67.8771 137.766 70.4043 135.239 70.4043 132.121C70.4043 129.004 67.8771 126.477 64.7596 126.477C61.6421 126.477 59.115 129.004 59.115 132.121Z" fill="#1A1A1A"/>
<path opacity="0.64" d="M79.9299 132.121C79.9299 135.239 82.4571 137.766 85.5746 137.766C88.6921 137.766 91.2192 135.239 91.2192 132.121C91.2192 129.004 88.6921 126.477 85.5746 126.477C82.4571 126.477 79.9299 129.004 79.9299 132.121Z" fill="#1A1A1A"/>
<path opacity="0.64" d="M100.921 132.121C100.921 135.239 103.448 137.766 106.565 137.766C109.683 137.766 112.21 135.239 112.21 132.121C112.21 129.004 109.683 126.477 106.565 126.477C103.448 126.477 100.921 129.004 100.921 132.121Z" fill="#1A1A1A"/>
<path opacity="0.64" d="M38.2999 5.64472C38.2999 8.7622 40.8272 11.2894 43.9446 11.2894C47.0621 11.2894 49.5894 8.7622 49.5894 5.64472C49.5894 2.52724 47.0621 -1.10469e-07 43.9446 -2.46738e-07C40.8272 -3.83008e-07 38.2999 2.52724 38.2999 5.64472Z" fill="#1A1A1A"/>
<path opacity="0.64" d="M59.115 5.64472C59.115 8.7622 61.6421 11.2894 64.7596 11.2894C67.8771 11.2894 70.4043 8.7622 70.4043 5.64472C70.4043 2.52724 67.8771 -1.10469e-07 64.7596 -2.46738e-07C61.6421 -3.83008e-07 59.115 2.52724 59.115 5.64472Z" fill="#1A1A1A"/>
<path opacity="0.64" d="M79.9299 5.64472C79.9299 8.7622 82.4571 11.2894 85.5746 11.2894C88.6921 11.2894 91.2192 8.7622 91.2192 5.64472C91.2192 2.52724 88.6921 -1.10464e-07 85.5746 -2.46734e-07C82.4571 -3.83003e-07 79.9299 2.52724 79.9299 5.64472Z" fill="#1A1A1A"/>
<path opacity="0.64" d="M100.921 5.64472C100.921 8.7622 103.448 11.2894 106.565 11.2894C109.683 11.2894 112.21 8.7622 112.21 5.64472C112.21 2.52724 109.683 -1.10469e-07 106.565 -2.46738e-07C103.448 -3.83008e-07 100.921 2.52724 100.921 5.64472Z" fill="#1A1A1A"/>
<path opacity="0.64" d="M38.2999 23.8136C38.2999 26.9311 40.8272 29.4584 43.9446 29.4584C47.0621 29.4584 49.5894 26.9311 49.5894 23.8136C49.5894 20.6962 47.0621 18.1689 43.9446 18.1689C40.8272 18.1689 38.2999 20.6962 38.2999 23.8136Z" fill="#1A1A1A"/>
<path opacity="0.64" d="M59.115 23.8136C59.115 26.9311 61.6421 29.4584 64.7596 29.4584C67.8771 29.4584 70.4043 26.9311 70.4043 23.8136C70.4043 20.6962 67.8771 18.1689 64.7596 18.1689C61.6421 18.1689 59.115 20.6962 59.115 23.8136Z" fill="#1A1A1A"/>
<path opacity="0.64" d="M79.9299 23.8136C79.9299 26.9311 82.4571 29.4584 85.5746 29.4584C88.6921 29.4584 91.2192 26.9311 91.2192 23.8136C91.2192 20.6962 88.6921 18.1689 85.5746 18.1689C82.4571 18.1689 79.9299 20.6962 79.9299 23.8136Z" fill="#1A1A1A"/>
<path opacity="0.64" d="M100.921 23.8136C100.921 26.9311 103.448 29.4584 106.565 29.4584C109.683 29.4584 112.21 26.9311 112.21 23.8136C112.21 20.6962 109.683 18.1689 106.565 18.1689C103.448 18.1689 100.921 20.6962 100.921 23.8136Z" fill="#1A1A1A"/>
<path opacity="0.64" d="M38.2999 41.9826C38.2999 45.1001 40.8272 47.6273 43.9446 47.6273C47.0621 47.6273 49.5894 45.1001 49.5894 41.9826C49.5894 38.8651 47.0621 36.3379 43.9446 36.3379C40.8272 36.3379 38.2999 38.8651 38.2999 41.9826Z" fill="#1A1A1A"/>
<path opacity="0.64" d="M59.115 41.9826C59.115 45.1001 61.6421 47.6273 64.7596 47.6273C67.8771 47.6273 70.4043 45.1001 70.4043 41.9826C70.4043 38.8651 67.8771 36.3379 64.7596 36.3379C61.6421 36.3379 59.115 38.8651 59.115 41.9826Z" fill="#1A1A1A"/>
<path opacity="0.64" d="M79.9299 41.9826C79.9299 45.1001 82.4571 47.6273 85.5746 47.6273C88.6921 47.6273 91.2192 45.1001 91.2192 41.9826C91.2192 38.8651 88.6921 36.3379 85.5746 36.3379C82.4571 36.3379 79.9299 38.8651 79.9299 41.9826Z" fill="#1A1A1A"/>
<path opacity="0.64" d="M100.921 41.9826C100.921 45.1001 103.448 47.6273 106.565 47.6273C109.683 47.6273 112.21 45.1001 112.21 41.9826C112.21 38.8651 109.683 36.3379 106.565 36.3379C103.448 36.3379 100.921 38.8651 100.921 41.9826Z" fill="#1A1A1A"/>
<path opacity="0.64" d="M38.2999 60.1511C38.2999 63.2685 40.8272 65.7958 43.9446 65.7958C47.0621 65.7958 49.5894 63.2685 49.5894 60.1511C49.5894 57.0336 47.0621 54.5063 43.9446 54.5063C40.8272 54.5063 38.2999 57.0336 38.2999 60.1511Z" fill="#1A1A1A"/>
<path opacity="0.64" d="M59.115 60.1511C59.115 63.2685 61.6421 65.7958 64.7596 65.7958C67.8771 65.7958 70.4043 63.2685 70.4043 60.1511C70.4043 57.0336 67.8771 54.5063 64.7596 54.5063C61.6421 54.5063 59.115 57.0336 59.115 60.1511Z" fill="#1A1A1A"/>
<path opacity="0.64" d="M79.9299 60.1511C79.9299 63.2685 82.4571 65.7958 85.5746 65.7958C88.6921 65.7958 91.2192 63.2685 91.2192 60.1511C91.2192 57.0336 88.6921 54.5063 85.5746 54.5063C82.4571 54.5063 79.9299 57.0336 79.9299 60.1511Z" fill="#1A1A1A"/>
<path opacity="0.64" d="M100.921 60.1511C100.921 63.2685 103.448 65.7958 106.565 65.7958C109.683 65.7958 112.21 63.2685 112.21 60.1511C112.21 57.0336 109.683 54.5063 106.565 54.5063C103.448 54.5063 100.921 57.0336 100.921 60.1511Z" fill="#1A1A1A"/>
<path opacity="0.64" d="M119.09 77.7907C119.09 80.9082 121.617 83.4354 124.735 83.4354C127.852 83.4354 130.379 80.9082 130.379 77.7907C130.379 74.6732 127.852 72.146 124.735 72.146C121.617 72.146 119.09 74.6732 119.09 77.7907Z" fill="#1A1A1A"/>
<path opacity="0.64" d="M139.905 77.7907C139.905 80.9082 142.432 83.4354 145.549 83.4354C148.667 83.4354 151.194 80.9082 151.194 77.7907C151.194 74.6732 148.667 72.146 145.549 72.146C142.432 72.146 139.905 74.6732 139.905 77.7907Z" fill="#1A1A1A"/>
<path opacity="0.64" d="M160.896 77.7907C160.896 80.9082 163.423 83.4354 166.54 83.4354C169.658 83.4354 172.185 80.9082 172.185 77.7907C172.185 74.6732 169.658 72.146 166.54 72.146C163.423 72.146 160.896 74.6732 160.896 77.7907Z" fill="#1A1A1A"/>
<path opacity="0.64" d="M181.711 77.7907C181.711 80.9082 184.238 83.4354 187.355 83.4354C190.473 83.4354 193 80.9082 193 77.7907C193 74.6732 190.473 72.146 187.355 72.146C184.238 72.146 181.711 74.6732 181.711 77.7907Z" fill="#1A1A1A"/>
<path opacity="0.64" d="M119.09 95.7834C119.09 98.9009 121.617 101.428 124.734 101.428C127.852 101.428 130.379 98.9009 130.379 95.7834C130.379 92.6659 127.852 90.1387 124.734 90.1387C121.617 90.1387 119.09 92.6659 119.09 95.7834Z" fill="#1A1A1A"/>
<path opacity="0.64" d="M139.905 95.7834C139.905 98.9009 142.432 101.428 145.549 101.428C148.667 101.428 151.194 98.9009 151.194 95.7834C151.194 92.6659 148.667 90.1387 145.549 90.1387C142.432 90.1387 139.905 92.6659 139.905 95.7834Z" fill="#1A1A1A"/>
<path opacity="0.64" d="M160.896 95.7834C160.896 98.9009 163.423 101.428 166.54 101.428C169.658 101.428 172.185 98.9009 172.185 95.7834C172.185 92.6659 169.658 90.1387 166.54 90.1387C163.423 90.1387 160.896 92.6659 160.896 95.7834Z" fill="#1A1A1A"/>
<path opacity="0.64" d="M181.711 95.7834C181.711 98.9009 184.238 101.428 187.355 101.428C190.473 101.428 193 98.9009 193 95.7834C193 92.6659 190.473 90.1387 187.355 90.1387C184.238 90.1387 181.711 92.6659 181.711 95.7834Z" fill="#1A1A1A"/>
<path opacity="0.64" d="M119.09 113.952C119.09 117.07 121.617 119.597 124.734 119.597C127.852 119.597 130.379 117.07 130.379 113.952C130.379 110.835 127.852 108.308 124.734 108.308C121.617 108.308 119.09 110.835 119.09 113.952Z" fill="#1A1A1A"/>
<path opacity="0.64" d="M139.905 113.952C139.905 117.07 142.432 119.597 145.549 119.597C148.667 119.597 151.194 117.07 151.194 113.952C151.194 110.835 148.667 108.308 145.549 108.308C142.432 108.308 139.905 110.835 139.905 113.952Z" fill="#1A1A1A"/>
<path opacity="0.64" d="M160.896 113.952C160.896 117.07 163.423 119.597 166.54 119.597C169.658 119.597 172.185 117.07 172.185 113.952C172.185 110.835 169.658 108.308 166.54 108.308C163.423 108.308 160.896 110.835 160.896 113.952Z" fill="#1A1A1A"/>
<path opacity="0.64" d="M181.711 113.952C181.711 117.07 184.238 119.597 187.355 119.597C190.473 119.597 193 117.07 193 113.952C193 110.835 190.473 108.308 187.355 108.308C184.238 108.308 181.711 110.835 181.711 113.952Z" fill="#1A1A1A"/>
<path opacity="0.64" d="M119.09 132.121C119.09 135.239 121.617 137.766 124.734 137.766C127.852 137.766 130.379 135.239 130.379 132.121C130.379 129.004 127.852 126.477 124.734 126.477C121.617 126.477 119.09 129.004 119.09 132.121Z" fill="#1A1A1A"/>
<path opacity="0.64" d="M139.905 132.121C139.905 135.239 142.432 137.766 145.549 137.766C148.667 137.766 151.194 135.239 151.194 132.121C151.194 129.004 148.667 126.477 145.549 126.477C142.432 126.477 139.905 129.004 139.905 132.121Z" fill="#1A1A1A"/>
<path opacity="0.64" d="M160.896 132.121C160.896 135.239 163.423 137.766 166.54 137.766C169.658 137.766 172.185 135.239 172.185 132.121C172.185 129.004 169.658 126.477 166.54 126.477C163.423 126.477 160.896 129.004 160.896 132.121Z" fill="#1A1A1A"/>
<path opacity="0.64" d="M181.711 132.121C181.711 135.239 184.238 137.766 187.355 137.766C190.473 137.766 193 135.239 193 132.121C193 129.004 190.473 126.477 187.355 126.477C184.238 126.477 181.711 129.004 181.711 132.121Z" fill="#1A1A1A"/>
<path opacity="0.64" d="M119.09 5.64472C119.09 8.7622 121.617 11.2894 124.735 11.2894C127.852 11.2894 130.379 8.7622 130.379 5.64472C130.379 2.52724 127.852 -1.10469e-07 124.735 -2.46738e-07C121.617 -3.83008e-07 119.09 2.52724 119.09 5.64472Z" fill="#1A1A1A"/>
<path opacity="0.64" d="M139.905 5.64472C139.905 8.7622 142.432 11.2894 145.549 11.2894C148.667 11.2894 151.194 8.7622 151.194 5.64472C151.194 2.52724 148.667 -1.10464e-07 145.549 -2.46734e-07C142.432 -3.83003e-07 139.905 2.52724 139.905 5.64472Z" fill="#1A1A1A"/>
<path opacity="0.64" d="M160.896 5.64472C160.896 8.7622 163.423 11.2894 166.54 11.2894C169.658 11.2894 172.185 8.7622 172.185 5.64472C172.185 2.52724 169.658 -1.10469e-07 166.54 -2.46738e-07C163.423 -3.83008e-07 160.896 2.52724 160.896 5.64472Z" fill="#1A1A1A"/>
<path opacity="0.64" d="M181.711 5.64472C181.711 8.7622 184.238 11.2894 187.355 11.2894C190.473 11.2894 193 8.7622 193 5.64472C193 2.52724 190.473 -1.10469e-07 187.355 -2.46738e-07C184.238 -3.83008e-07 181.711 2.52724 181.711 5.64472Z" fill="#1A1A1A"/>
<path opacity="0.64" d="M119.09 23.8136C119.09 26.9311 121.617 29.4584 124.735 29.4584C127.852 29.4584 130.379 26.9311 130.379 23.8136C130.379 20.6962 127.852 18.1689 124.735 18.1689C121.617 18.1689 119.09 20.6962 119.09 23.8136Z" fill="#1A1A1A"/>
<path opacity="0.64" d="M139.905 23.8136C139.905 26.9311 142.432 29.4584 145.549 29.4584C148.667 29.4584 151.194 26.9311 151.194 23.8136C151.194 20.6962 148.667 18.1689 145.549 18.1689C142.432 18.1689 139.905 20.6962 139.905 23.8136Z" fill="#1A1A1A"/>
<path opacity="0.64" d="M160.896 23.8136C160.896 26.9311 163.423 29.4584 166.54 29.4584C169.658 29.4584 172.185 26.9311 172.185 23.8136C172.185 20.6962 169.658 18.1689 166.54 18.1689C163.423 18.1689 160.896 20.6962 160.896 23.8136Z" fill="#1A1A1A"/>
<path opacity="0.64" d="M181.711 23.8136C181.711 26.9311 184.238 29.4584 187.355 29.4584C190.473 29.4584 193 26.9311 193 23.8136C193 20.6962 190.473 18.1689 187.355 18.1689C184.238 18.1689 181.711 20.6962 181.711 23.8136Z" fill="#1A1A1A"/>
<path opacity="0.64" d="M119.09 41.9826C119.09 45.1001 121.617 47.6273 124.735 47.6273C127.852 47.6273 130.379 45.1001 130.379 41.9826C130.379 38.8651 127.852 36.3379 124.735 36.3379C121.617 36.3379 119.09 38.8651 119.09 41.9826Z" fill="#1A1A1A"/>
<path opacity="0.64" d="M139.905 41.9826C139.905 45.1001 142.432 47.6273 145.549 47.6273C148.667 47.6273 151.194 45.1001 151.194 41.9826C151.194 38.8651 148.667 36.3379 145.549 36.3379C142.432 36.3379 139.905 38.8651 139.905 41.9826Z" fill="#1A1A1A"/>
<path opacity="0.64" d="M160.896 41.9826C160.896 45.1001 163.423 47.6273 166.54 47.6273C169.658 47.6273 172.185 45.1001 172.185 41.9826C172.185 38.8651 169.658 36.3379 166.54 36.3379C163.423 36.3379 160.896 38.8651 160.896 41.9826Z" fill="#1A1A1A"/>
<path opacity="0.64" d="M181.711 41.9826C181.711 45.1001 184.238 47.6273 187.355 47.6273C190.473 47.6273 193 45.1001 193 41.9826C193 38.8651 190.473 36.3379 187.355 36.3379C184.238 36.3379 181.711 38.8651 181.711 41.9826Z" fill="#1A1A1A"/>
<path opacity="0.64" d="M119.09 60.1511C119.09 63.2685 121.617 65.7958 124.735 65.7958C127.852 65.7958 130.379 63.2685 130.379 60.1511C130.379 57.0336 127.852 54.5063 124.735 54.5063C121.617 54.5063 119.09 57.0336 119.09 60.1511Z" fill="#1A1A1A"/>
<path opacity="0.64" d="M139.905 60.1511C139.905 63.2685 142.432 65.7958 145.549 65.7958C148.667 65.7958 151.194 63.2685 151.194 60.1511C151.194 57.0336 148.667 54.5063 145.549 54.5063C142.432 54.5063 139.905 57.0336 139.905 60.1511Z" fill="#1A1A1A"/>
<path opacity="0.64" d="M160.896 60.1511C160.896 63.2685 163.423 65.7958 166.54 65.7958C169.658 65.7958 172.185 63.2685 172.185 60.1511C172.185 57.0336 169.658 54.5063 166.54 54.5063C163.423 54.5063 160.896 57.0336 160.896 60.1511Z" fill="#1A1A1A"/>
<path opacity="0.64" d="M181.711 60.1511C181.711 63.2685 184.238 65.7958 187.355 65.7958C190.473 65.7958 193 63.2685 193 60.1511C193 57.0336 190.473 54.5063 187.355 54.5063C184.238 54.5063 181.711 57.0336 181.711 60.1511Z" fill="#1A1A1A"/>
</g>
</svg>
