<svg width="167" height="335" viewBox="0 0 167 335" fill="none" xmlns="http://www.w3.org/2000/svg">
<g opacity="0.2">
<path d="M-167 167.5C-167 259.455 -92.4554 334 -0.500015 334C91.4554 334 166 259.455 166 167.5C166 75.5445 91.4554 0.999997 -0.5 0.999993C-92.4554 0.999989 -167 75.5445 -167 167.5Z" stroke="white" stroke-miterlimit="10"/>
<path d="M-132.252 167.499C-132.252 141.228 -124.484 115.549 -109.931 93.7124C-95.3779 71.8762 -74.6955 54.8658 -50.503 44.836C-26.3105 34.8062 0.303634 32.208 25.9685 37.3706C51.6334 42.5332 75.1944 55.2243 93.6673 73.8365C112.14 92.4486 124.694 116.145 129.738 141.923C134.783 167.701 132.091 194.402 122.004 218.644C111.917 242.886 94.8891 263.578 73.0762 278.099C51.2632 292.621 25.647 300.318 -0.528127 300.216C-35.5104 300.081 -69.0138 286.038 -93.7024 261.164C-118.391 236.289 -132.253 202.609 -132.252 167.499V167.499Z" stroke="white" stroke-miterlimit="10"/>
<path d="M-97.5031 167.498C-97.5028 148.1 -91.7722 129.139 -81.0375 113.017C-70.3029 96.8947 -55.0474 84.3382 -37.2044 76.9384C-19.3614 69.5386 0.266006 67.6287 19.1903 71.4507C38.1146 75.2726 55.4839 84.6544 69.097 98.407C82.7102 112.16 91.9544 129.664 95.6581 148.702C99.3618 167.74 97.3583 187.454 89.9014 205.347C82.4446 223.239 69.8702 238.504 53.7716 249.207C37.6731 259.91 18.7751 265.57 -0.527256 265.468C-13.3054 265.468 -25.9575 262.93 -37.7566 258.001C-49.5556 253.071 -60.2688 245.847 -69.2805 236.743C-78.2922 227.638 -85.4249 216.834 -90.2683 204.951C-95.1116 193.068 -97.5703 180.34 -97.5031 167.498V167.498Z" stroke="white" stroke-miterlimit="10"/>
<path d="M-62.7544 167.498C-62.754 154.972 -59.0614 142.729 -52.1448 132.321C-45.2283 121.913 -35.3996 113.811 -23.906 109.041C-12.4123 104.271 0.228249 103.05 12.412 105.531C24.5957 108.013 35.7735 114.085 44.5269 122.978C53.2803 131.872 59.2149 143.185 61.5777 155.482C63.9406 167.78 62.6253 180.507 57.7985 192.05C52.9717 203.593 44.851 213.431 34.4669 220.316C24.0828 227.2 11.9032 230.821 -0.526479 230.72C-8.74148 230.72 -16.8753 229.081 -24.4586 225.898C-32.0418 222.714 -38.9245 218.049 -44.7096 212.172C-50.4947 206.294 -55.0677 199.321 -58.1648 191.653C-61.2619 183.986 -62.8218 175.776 -62.7544 167.498Z" stroke="white" stroke-miterlimit="10"/>
</g>
</svg>
