<svg width="162" height="335" viewBox="0 0 162 335" fill="none" xmlns="http://www.w3.org/2000/svg">
<g opacity="0.2">
<path d="M0.999993 167.5C0.999989 259.455 75.5446 334 167.5 334C259.455 334 334 259.455 334 167.5C334 75.5445 259.455 0.999997 167.5 0.999993C75.5446 0.999989 0.999997 75.5445 0.999993 167.5Z" stroke="#1F2122" stroke-miterlimit="10"/>
<path d="M35.7477 167.499C35.7479 141.228 43.5164 115.549 58.0692 93.7124C72.6221 71.8762 93.3045 54.8658 117.497 44.836C141.689 34.8062 168.304 32.208 193.969 37.3706C219.633 42.5332 243.194 55.2243 261.667 73.8365C280.14 92.4486 292.694 116.145 297.738 141.923C302.783 167.701 300.091 194.402 290.004 218.644C279.917 242.886 262.889 263.578 241.076 278.099C219.263 292.621 193.647 300.318 167.472 300.216C132.49 300.081 98.9862 286.038 74.2976 261.164C49.6091 236.289 35.7474 202.609 35.7477 167.499V167.499Z" stroke="#1F2122" stroke-miterlimit="10"/>
<path d="M70.4972 167.498C70.4974 148.1 76.2281 129.139 86.9627 113.017C97.6974 96.8947 112.953 84.3382 130.796 76.9384C148.639 69.5386 168.266 67.6287 187.191 71.4507C206.115 75.2726 223.484 84.6544 237.097 98.407C250.71 112.16 259.955 129.664 263.658 148.702C267.362 167.74 265.359 187.454 257.902 205.347C250.445 223.239 237.87 238.504 221.772 249.207C205.673 259.91 186.775 265.57 167.473 265.468C154.695 265.468 142.043 262.93 130.244 258.001C118.445 253.071 107.731 245.847 98.7197 236.743C89.708 227.638 82.5754 216.834 77.732 204.951C72.8886 193.068 70.4299 180.34 70.4972 167.498V167.498Z" stroke="#1F2122" stroke-miterlimit="10"/>
<path d="M105.246 167.498C105.246 154.972 108.939 142.729 115.855 132.321C122.772 121.913 132.6 113.811 144.094 109.041C155.588 104.271 168.228 103.05 180.412 105.531C192.596 108.013 203.773 114.085 212.527 122.978C221.28 131.872 227.215 143.185 229.578 155.482C231.941 167.78 230.625 180.507 225.798 192.05C220.972 203.593 212.851 213.431 202.467 220.316C192.083 227.2 179.903 230.821 167.473 230.72C159.258 230.72 151.125 229.081 143.541 225.898C135.958 222.714 129.075 218.049 123.29 212.172C117.505 206.294 112.932 199.321 109.835 191.653C106.738 183.986 105.178 175.776 105.246 167.498Z" stroke="#1F2122" stroke-miterlimit="10"/>
</g>
<path d="M122.006 278.913C122.006 278.913 115.095 289.779 106.572 288.405C106.572 288.405 115.053 293.838 115.022 304.064C115.022 304.064 119.155 296.598 130.088 294.688C130.088 294.688 122.641 292.875 122.006 278.913Z" fill="#EE4D4A"/>
<path d="M47.9241 125.513C47.9241 125.513 30.822 140.14 17.4087 133.337C17.4087 133.337 28.6424 146.944 23.277 164.122C23.277 164.122 34.0077 153.747 53.1217 156.298C53.1217 156.298 41.7204 149.325 47.9241 125.513Z" fill="#F7E39E"/>
<path d="M89.353 316.323L90.4619 306.152L80.2916 305.043L79.1828 315.214L89.353 316.323Z" fill="white"/>
</svg>
