<svg width="62" height="61" viewBox="0 0 62 61" fill="none" xmlns="http://www.w3.org/2000/svg">
<circle cx="27.1815" cy="27.1815" r="27.1815" fill="#F0CA50"/>
<path d="M8.90822 42.3901H13.9982C16.7863 42.3901 19.0233 44.3613 19.0233 46.7549L21.0333 54.2453L19.0557 60.8347H5.34201C4.53151 60.8347 3.88311 60.2715 3.88311 59.5675V46.7549C3.88311 44.3332 6.15252 42.3901 8.90822 42.3901Z" fill="#5C9EDC"/>
<path d="M33.8477 40.1253L35.8539 51.6775L33.8477 60.835H20.1598C19.3509 60.835 18.7037 60.1879 18.7037 59.3789V40.1253C18.7037 37.3425 20.9688 35.1097 23.7193 35.1097H28.7997C31.5825 35.0774 33.8477 37.3425 33.8477 40.1253Z" fill="#1C427B"/>
<path d="M36.8243 27.5051H41.9046C44.6875 27.5051 46.9203 29.7702 46.9203 32.5208L48.9265 49.5415L46.9203 60.8024H31.7763V32.5208C31.8087 29.7702 34.0414 27.5051 36.8243 27.5051Z" fill="#163459"/>
<path d="M62 60.8346H46.856C46.856 56.3044 46.856 23.5248 46.856 21.9392C46.856 19.1563 49.1212 16.9236 51.8717 16.9236H56.952C59.7349 16.9236 61.9676 19.1887 61.9676 21.9392V60.8346H62Z" fill="#EE4D4A"/>
<path d="M10.8465 34.9478C10.5488 34.9478 10.2511 34.8303 10.0428 34.6247C9.59628 34.184 9.59628 33.4791 10.0428 33.0385L18.5858 24.6081C18.7942 24.4025 19.0918 24.285 19.3895 24.285C19.6872 24.285 19.9848 24.4025 20.1932 24.6081L23.9438 28.3092L35.2551 17.1471H32.2784C31.6533 17.1471 31.1473 16.6477 31.1473 16.0015C31.1473 15.3846 31.6533 14.8853 32.2784 14.8853C33.5286 14.8853 34.5407 14.8853 35.3146 14.8853H36.6243C38.202 14.8853 38.2615 14.9146 38.4401 14.9734C38.8271 15.1202 39.095 15.4727 39.1545 15.8546V15.9133C39.1545 16.0015 39.1545 16.5596 39.1545 18.2633V21.6707C39.1545 22.2875 38.6485 22.7869 38.0234 22.7869C37.3983 22.7869 36.8922 22.2875 36.8922 21.6707V18.7333L24.7475 30.7179C24.5391 30.9235 24.2414 31.041 23.9438 31.041C23.6461 31.041 23.3484 30.9235 23.1401 30.7179L19.3895 27.0168L11.6502 34.654C11.4418 34.8303 11.1739 34.9478 10.8465 34.9478Z" fill="white"/>
</svg>
