<svg width="70" height="71" viewBox="0 0 70 71" fill="none" xmlns="http://www.w3.org/2000/svg">
<path d="M45.6254 45.6252L50.4873 50.4872C52.226 52.2259 55.1239 52.0327 56.5728 50.0364C60.4366 44.8202 62.7227 38.3484 62.7227 31.3614L56.8948 27.7874L51.4855 31.3614L45.6254 45.6252Z" fill="#1C427B"/>
<path d="M31.3612 11.205L28.1091 5.79569L31.3612 0C40.0225 0 47.8789 3.50961 53.5458 9.17652L52.5154 15.7772L45.625 17.0973L31.3612 11.205Z" fill="#5C9EDC"/>
<path d="M11.2372 31.3612L6.31087 34.9673L0 31.3612C0 22.6998 3.50961 14.8434 9.17652 9.17651L15.906 10.4644L17.1295 17.0973L11.2372 31.3612Z" fill="#F0CA50"/>
<path d="M17.13 17.1293L9.20917 9.2085C14.8761 3.5416 22.7325 0.0319824 31.3938 0.0319824V11.237L17.13 17.1293Z" fill="#5C9EDC"/>
<path d="M11.2372 31.3613H0C0 38.3484 2.28608 44.8202 6.14987 50.0363C7.631 52.0004 10.4966 52.2258 12.2354 50.4871L17.0973 45.6252L11.2372 31.3613Z" fill="#F0CA50"/>
<path d="M45.6254 17.1296L53.5462 9.20874C59.2131 14.8756 62.7227 22.732 62.7227 31.3934H51.5177L45.6254 17.1296Z" fill="#1C427B"/>
<path d="M51.5173 31.3612C51.5173 36.9316 49.2634 41.9545 45.625 45.5929C41.9866 49.2313 36.9315 51.4852 31.3933 51.4852C25.823 51.4852 20.8001 49.2313 17.1617 45.5929C13.5233 41.9545 11.2694 36.8994 11.2694 31.3612C11.2694 25.7909 13.5233 20.768 17.1617 17.1296C20.8001 13.4912 25.8552 11.2373 31.3933 11.2373C36.9315 11.2373 41.9866 13.4912 45.625 17.1296C49.2634 20.768 51.5173 25.7909 51.5173 31.3612Z" fill="white"/>
<path d="M29.6226 27.1432L38.2517 20.7036C39.4431 19.802 41.1496 20.0596 42.0511 21.2509C42.7917 22.2491 42.7595 23.5692 42.0511 24.5029L35.6115 33.1321C34.1947 35.0318 31.5223 35.4182 29.6226 34.0014C27.3365 32.3271 27.2721 28.8819 29.6226 27.1432Z" fill="#5C9EDC"/>
<path d="M66.6508 43.8544C66.0712 43.0817 64.8477 43.3714 64.6867 44.3374C64.3647 46.0761 63.5276 48.3944 61.3703 50.1975C61.8533 40.1516 54.995 41.6005 56.5727 31.7156C56.7015 30.8463 55.8322 30.1701 55.0272 30.5243C52.0972 31.8122 46.8166 35.4828 46.8166 45.0457C44.6916 43.2426 43.9188 41.0531 43.629 39.4432C43.468 38.5417 42.3733 38.1875 41.7293 38.8637C39.7008 40.9888 38.2841 43.6612 37.4469 46.4625C35.7404 52.0972 36.0624 58.2792 39.3466 63.27C42.4055 67.9387 47.6216 70.8044 53.1919 70.8044C62.465 70.8044 69.9994 63.27 69.9994 53.9969C70.0316 50.1653 68.7759 46.6557 66.6508 43.8544Z" fill="#EE4D4A"/>
</svg>
