<svg width="62" height="80" viewBox="0 0 62 80" fill="none" xmlns="http://www.w3.org/2000/svg">
<path d="M57.938 14.2674L50.4564 25.7914H31.8218L31.2676 25.3178C29.8475 24.1339 29.5357 21.8449 30.5748 20.2268L42.6977 1.48051C43.7368 -0.137587 45.7458 -0.492789 47.1659 0.73065L47.9625 1.40157L57.2106 9.17634C58.7 10.3603 58.9771 12.6493 57.938 14.2674Z" fill="#EE4D4A"/>
<path d="M29.1295 19.3777H9.55968L7.62001 11.1688C7.16974 9.23499 8.1742 7.22225 9.87141 6.66973L19.639 3.67032L21.925 2.95994C23.6222 2.44688 25.3887 3.59139 25.8736 5.52521L29.1295 19.3777Z" fill="#F1CA50"/>
<path d="M55.4886 28.3369V38.0455C55.4886 39.8609 54.8651 41.6369 53.7221 42.8998L38.3087 60.2647C37.1657 61.5671 36.5422 63.3036 36.5422 65.119V72.6175C36.5422 73.7226 36.0226 74.7092 35.1567 75.2617L31.5891 77.4324L27.6752 79.8003C26.6707 80.3923 25.4584 79.603 25.4584 78.3006V65.119C25.4584 63.3036 24.8349 61.5671 23.6919 60.2647L8.27851 42.8998C7.1355 41.6369 6.51203 39.8609 6.51203 38.0455V28.3369H55.4886Z" fill="#5C9EDC"/>
<path d="M62 23.7974C62 25.2182 61.4804 26.5206 60.6838 27.4678C59.8525 28.4149 58.7095 28.9675 57.4625 28.9675H4.53741C2.00892 28.9675 -1.90735e-05 26.639 -1.90735e-05 23.7974C-1.90735e-05 22.3767 0.519534 21.0743 1.31618 20.1271C2.14747 19.18 3.29048 18.6274 4.53741 18.6274H57.4625C59.9564 18.6274 62 20.9559 62 23.7974Z" fill="#1C427B"/>
<path d="M50.8371 15.7675C51.1835 15.7675 51.5298 15.5702 51.7723 15.2545C52.1533 14.6625 52.0494 13.8732 51.5298 13.4391L45.3991 8.22957C44.8795 7.79545 44.1868 7.91385 43.8058 8.50584C43.4248 9.09782 43.5287 9.88713 44.0483 10.3213L50.179 15.4913C50.3522 15.6491 50.5946 15.7675 50.8371 15.7675Z" fill="white"/>
<path d="M21.2325 10.6951L13.8894 12.9841C13.266 13.1815 12.9196 13.8918 13.0928 14.6022C13.266 15.3126 13.8894 15.7073 14.5129 15.5099L21.8559 13.2209C22.4794 13.0236 22.8258 12.3132 22.6526 11.6028C22.4794 10.9319 21.8213 10.4978 21.2325 10.6951Z" fill="white"/>
</svg>
