<svg width="62" height="76" viewBox="0 0 62 76" fill="none" xmlns="http://www.w3.org/2000/svg">
<path d="M42.763 71.2544V71.2902C42.763 73.5765 41.0985 75.4343 39.05 75.4343H22.9819C20.9333 75.4343 19.2689 73.5765 19.2689 71.2902V71.2544C19.2689 68.968 20.9333 67.1104 22.9819 67.1104H39.05C41.0985 67.1104 42.763 68.968 42.763 71.2544Z" fill="#EE4D4A"/>
<path d="M36.3613 62.5731V67.2173H25.6706V62.5731L31.016 61.5728L36.3613 62.5731Z" fill="#EE4D4A"/>
<path d="M62 18.9889V48.8192L31.7202 50.391L5.34538 48.8192L2.94476 50.391L0 48.8192V18.9889C0 15.7379 2.36861 13.0942 5.28136 13.0942H56.7506C59.6314 13.13 62 15.7379 62 18.9889Z" fill="#5C9EDC"/>
<path d="M62 48.8191V57.2501C62 60.5011 59.6314 63.1447 56.7186 63.1447H5.28136C2.36861 63.1447 0 60.5011 0 57.2501V48.8191H62Z" fill="#F1CA50"/>
<path d="M51.8854 28.4915C50.7651 26.1694 48.1724 25.312 46.0919 26.5981L43.9153 27.92L39.0181 19.9176L36.3614 12.4511L34.697 11.3079V9.02145L36.8735 7.69965C38.9541 6.44927 39.7223 3.55552 38.57 1.2334L41.7708 4.69879L42.2829 8.80716L46.7321 15.7378L51.8854 28.4915Z" fill="#EE4D4A"/>
<path d="M29.0635 31.5282L27.143 32.6714C24.6463 34.1719 21.5415 33.2431 20.0372 30.5994C19.9731 30.4923 19.9411 30.385 19.8771 30.2779C18.4688 27.3842 19.429 23.7759 22.0217 22.1683L23.9422 21.0251L24.9344 23.5259C25.1585 26.241 25.1585 26.0623 25.1585 26.0981L27.8152 27.9915L29.0635 31.5282Z" fill="#EE4D4A"/>
<path d="M47.7883 38.4232C47.7883 39.6378 47.2441 40.8525 46.1559 41.4956C45.0356 42.1743 43.6912 42.0314 42.699 41.174C41.1306 39.8164 39.7222 38.2446 38.4419 36.5655L38.6979 36.4583C38.6019 36.494 38.5379 36.5298 38.4419 36.5655C36.5214 34.029 35.8812 32.5643 35.8812 32.5643L37.8977 29.742L41.5147 29.3848C41.8988 30.0635 42.4429 31.5997 43.9153 33.3145C44.6195 34.1362 45.4197 34.8507 46.2839 35.458C47.2761 36.1368 47.7883 37.28 47.7883 38.4232Z" fill="#EE4D4A"/>
<path d="M38.666 36.4583L38.4099 36.5654C38.5059 36.5297 38.602 36.494 38.666 36.4583Z" fill="#5C9EDC"/>
<path d="M38.666 36.4583L38.4099 36.5654C38.5059 36.5297 38.602 36.494 38.666 36.4583Z" fill="#5C9EDC"/>
<path d="M52.7816 27.9557L51.8854 28.4916L42.2829 8.84286L38.57 1.26919L39.4662 0.733312C41.3227 -0.409886 43.5312 -0.159811 45.1316 1.09056C45.8038 1.59071 46.348 2.30519 46.7641 3.12687C46.7641 3.16259 54.8942 19.7747 54.8942 19.8104C56.3665 22.7041 55.4063 26.3838 52.7816 27.9557Z" fill="#F1CA50"/>
<path d="M43.9152 27.92C40.7784 29.8135 40.8424 29.7777 37.6416 31.7426C37.6416 31.7426 37.6416 31.7426 37.6096 31.7426C33.3845 34.2791 28.3272 32.457 26.1506 27.9557L25.2224 26.0266L25.0303 25.6693C22.8538 21.2395 24.2301 15.6663 28.1031 13.0584C28.3272 12.9155 28.1351 13.0227 34.7609 9.02148L36.4253 12.4154L43.9152 27.92Z" fill="#F1CA50"/>
<path d="M6.36964 36.6368C6.14558 37.2441 4.35312 42.317 3.68094 44.1032C3.55291 44.4962 3.71295 44.925 4.06504 45.0679C4.41713 45.2108 4.80123 45.0321 4.92927 44.6391L5.8255 42.1027H8.13009L9.02632 44.6391C9.12235 44.9249 9.37841 45.1036 9.63448 45.1036C10.1146 45.1036 10.4347 44.5677 10.2426 44.0676L7.55394 36.601C7.3939 35.9937 6.5937 35.9937 6.36964 36.6368ZM6.36964 40.6379L6.9778 38.8875L7.58595 40.6379H6.36964Z" fill="white"/>
<path d="M12.3552 36.1724C12.0031 36.1724 11.683 36.4939 11.683 36.9226V44.3891C11.683 44.7821 11.9711 45.1394 12.3552 45.1394C14.5638 45.1394 16.3562 43.1388 16.3562 40.6737V40.638C16.3562 38.173 14.5638 36.1724 12.3552 36.1724ZM13.0274 37.7443C14.1797 38.0658 15.0439 39.2447 15.0439 40.638V40.6737C15.0439 42.067 14.1797 43.2459 13.0274 43.5674V37.7443Z" fill="white"/>
<path d="M20.0372 37.6371H21.7016C22.0537 37.6371 22.3738 37.3156 22.3738 36.8869C22.3738 36.4582 22.0857 36.1367 21.7016 36.1367H20.0372C18.7569 36.1367 17.7006 37.3156 17.7006 38.7446C17.7006 40.1736 18.7569 41.3525 20.0372 41.3525C20.5813 41.3525 21.0294 41.8527 21.0294 42.46C21.0294 43.0673 20.5813 43.5674 20.0372 43.5674H18.3728C18.0207 43.5674 17.7006 43.889 17.7006 44.3177C17.7006 44.7464 17.9887 45.068 18.3728 45.068H20.0372C21.3175 45.068 22.3738 43.889 22.3738 42.46C22.3738 41.031 21.3175 39.8521 20.0372 39.8521C19.493 39.8521 19.0449 39.3519 19.0449 38.7446C19.0449 38.1372 19.493 37.6371 20.0372 37.6371Z" fill="white"/>
</svg>
