<svg width="67" height="70" viewBox="0 0 67 70" fill="none" xmlns="http://www.w3.org/2000/svg">
<path fill-rule="evenodd" clip-rule="evenodd" d="M46.8238 46.4803C40.5238 46.3324 34.1802 48.4085 27.8111 51.7621C21.2083 46.4367 9.67033 45.2269 5.20264 47.9183L16.2533 33.369C17.7139 31.4437 19.2379 27.6507 19.3548 24.2761C19.3604 24.1438 19.3633 24.0128 19.3633 23.8832L19.3675 22.1634L19.376 18.6437L19.3802 16.531L19.3887 13.0098L19.3943 10.8971L19.4084 4.91113H33.7126L33.7562 23.8829C33.7647 27.3519 35.3491 31.3688 36.8703 33.3689L46.8238 46.4803Z" fill="#F1F1F1"/>
<path fill-rule="evenodd" clip-rule="evenodd" d="M0.591797 56.2937C15.148 58.29 22.5019 52.8602 27.8117 47.7699C21.2083 42.4438 9.67033 45.2266 5.20291 47.9175L3.40643 50.2811C2.15682 51.9299 1.17066 54.054 0.591797 56.2937Z" fill="#F7E39E"/>
<path fill-rule="evenodd" clip-rule="evenodd" d="M8.44476 70H26.562H44.6754C47.7416 70 49.8574 68.898 51.2068 67.1812C54.2849 62.3024 52.109 53.7106 49.8375 50.4488L46.8232 46.4802C39.4813 42.2601 34.1795 44.4162 27.8115 47.7698C21.1204 51.2951 13.2514 56.142 0.59164 56.2936C-1.06908 62.6738 0.527929 70 8.44476 70Z" fill="#F1CA50"/>
<path fill-rule="evenodd" clip-rule="evenodd" d="M63.7391 10.0127V36.5197C61.8179 37.8015 58.7039 37.8015 56.7885 36.5197C54.8673 35.238 51.7575 35.238 49.8378 36.5197V10.0127H63.7391Z" fill="#F1F1F1"/>
<path fill-rule="evenodd" clip-rule="evenodd" d="M49.8376 11.4224H63.739H64.0265C65.6394 11.4224 66.9609 10.0011 66.9609 8.26433C66.9609 6.52362 65.6394 5.10229 64.0265 5.10229H49.5501C47.9331 5.10229 46.6157 6.52362 46.6157 8.26433C46.6157 10.0011 47.9331 11.4224 49.5501 11.4224H49.8376Z" fill="#5C9EDC"/>
<path fill-rule="evenodd" clip-rule="evenodd" d="M19.4078 6.3201H33.7124H34.3552C36.0959 6.3201 37.5171 4.89877 37.5171 3.15807C37.5172 1.42133 36.0919 0 34.3552 0H18.765C17.0282 0 15.6031 1.42133 15.6031 3.15807C15.6031 4.89877 17.0244 6.3201 18.765 6.3201H19.4078Z" fill="#5C9EDC"/>
<path fill-rule="evenodd" clip-rule="evenodd" d="M23.7715 35.3932C23.7715 36.9343 25.0211 38.1839 26.5582 38.1839C28.0993 38.1839 29.3489 36.9343 29.3489 35.3932C29.3489 33.8521 28.0993 32.6064 26.5582 32.6064C25.0211 32.6064 23.7715 33.8521 23.7715 35.3932Z" fill="#F0CA50"/>
<path fill-rule="evenodd" clip-rule="evenodd" d="M33.2413 59.6597C33.2413 62.0233 35.1577 63.9396 37.5172 63.9396C39.8807 63.9396 41.7971 62.0233 41.7971 59.6597C41.7971 57.2961 39.8807 55.3838 37.5172 55.3838C35.1577 55.3837 33.2413 57.2961 33.2413 59.6597Z" fill="#F7E39E"/>
<path fill-rule="evenodd" clip-rule="evenodd" d="M13.4072 64.6581C14.8444 64.6581 16.0102 63.4923 16.0102 62.055C16.0102 60.6216 14.8444 59.4558 13.4072 59.4558C11.9701 59.4558 10.8043 60.6216 10.8043 62.055C10.8043 63.4923 11.9701 64.6581 13.4072 64.6581Z" fill="#F7E39E"/>
<path fill-rule="evenodd" clip-rule="evenodd" d="M49.8376 50.4489V63.0492C49.8376 64.5942 50.3486 66.0236 51.207 67.1814C52.4485 68.8503 54.4208 69.9522 56.6406 70.0001H56.936C60.6888 69.9202 63.739 66.8221 63.739 63.0492V35.1099C61.8187 36.3915 58.7046 36.3915 56.7884 35.1099C54.868 33.8283 51.7579 33.8283 49.8377 35.1099V50.4489H49.8376Z" fill="#EE4D4A"/>
<path opacity="0.2" fill-rule="evenodd" clip-rule="evenodd" d="M56.7882 47.7418C58.1616 47.7418 59.2754 46.628 59.2754 45.2545C59.2754 43.877 58.1616 42.7632 56.7882 42.7632C55.4109 42.7632 54.2969 43.877 54.2969 45.2545C54.2971 46.628 55.4109 47.7418 56.7882 47.7418Z" fill="white"/>
<path d="M21.2043 58.1048C20.9329 58.1048 20.6617 58.0009 20.4552 57.7932C20.0439 57.3795 20.0458 56.7106 20.4595 56.2993L20.4715 56.2872C20.8852 55.8758 21.5542 55.8779 21.9654 56.2915C22.3768 56.7052 22.3749 57.374 21.9612 57.7854L21.9492 57.7974C21.7431 58.0024 21.4737 58.1048 21.2043 58.1048Z" fill="#F7E39E"/>
<path d="M29.8278 54.7231C29.5576 54.7231 29.2871 54.6199 29.0809 54.4137C28.6683 54.0012 28.6683 53.3324 29.0809 52.9198L29.093 52.9077C29.5055 52.4953 30.1743 52.4953 30.5869 52.9077C30.9995 53.3202 30.9995 53.9891 30.5869 54.4017L30.5749 54.4137C30.3686 54.6199 30.0981 54.7231 29.8278 54.7231Z" fill="#F7E39E"/>
<path opacity="0.2" d="M55.1554 55.2941C54.8851 55.2941 54.6147 55.1909 54.4085 54.9847C53.9959 54.5723 53.9959 53.9034 54.4085 53.4908L54.4206 53.4788C54.833 53.0663 55.5019 53.0663 55.9145 53.4788C56.3271 53.8913 56.3271 54.5601 55.9145 54.9727L55.9023 54.9847C55.6961 55.1909 55.4257 55.2941 55.1554 55.2941Z" fill="white"/>
<path opacity="0.2" d="M57.407 63.3628C57.1356 63.3628 56.8644 63.2589 56.6579 63.0512C56.2466 62.6375 56.2485 61.9687 56.6622 61.5573L56.6742 61.5453C57.0879 61.1339 57.7568 61.1359 58.1681 61.5495C58.5795 61.9632 58.5776 62.6321 58.1639 63.0434L58.1519 63.0555C57.9458 63.2604 57.6764 63.3628 57.407 63.3628Z" fill="white"/>
<path d="M25.0547 11.9534C25.0547 12.5365 24.5829 13.0097 23.9984 13.0097H19.3885L19.3942 10.897H23.9984C24.5829 10.8971 25.0547 11.3703 25.0547 11.9534Z" fill="#1C427B"/>
<path d="M25.0547 17.5874C25.0547 18.1705 24.5829 18.6437 23.9985 18.6437H19.3759L19.3801 16.531H23.9985C24.5829 16.531 25.0547 17.0028 25.0547 17.5874Z" fill="#1C427B"/>
<path d="M25.0548 23.2198C25.0548 23.8042 24.5829 24.276 23.9985 24.276H19.3547C19.3603 24.1437 19.3632 24.0127 19.3632 23.8831L19.3674 22.1633H23.9983C24.5829 22.1633 25.0548 22.6367 25.0548 23.2198Z" fill="#1C427B"/>
<path d="M55.4857 17.0564C55.4857 17.6395 55.0125 18.1127 54.4294 18.1127H49.8378V16H54.4294C55.0124 16.0001 55.4857 16.472 55.4857 17.0564Z" fill="#1C427B"/>
<path d="M55.4857 22.6887C55.4857 23.2732 55.0125 23.745 54.4294 23.745H49.8378V21.6323H54.4294C55.0124 21.6325 55.4857 22.1056 55.4857 22.6887Z" fill="#1C427B"/>
<path d="M55.4857 28.3267C55.4857 28.9098 55.0125 29.383 54.4294 29.383H49.8378V27.2703H54.4294C55.0124 27.2704 55.4857 27.7436 55.4857 28.3267Z" fill="#1C427B"/>
</svg>
