<svg width="159" height="100" viewBox="0 0 159 100" fill="none" xmlns="http://www.w3.org/2000/svg">
<path d="M38.0694 74.1473C22.4444 74.1473 9.94442 61.5053 9.94442 46.0223C9.94442 30.5394 22.5865 17.8973 38.0694 17.8973H38.2115V16.6189H38.0694C21.7342 16.6189 8.66602 29.8291 8.66602 46.0223C8.66602 62.2155 21.7342 75.2837 37.9274 75.2837H38.0694V74.1473Z" fill="#163459"/>
<path d="M38.0682 82.6703C17.6136 82.6703 1.27841 66.193 1.27841 45.8805C1.27841 25.568 17.6136 9.2328 37.9261 9.2328H38.0682V8.09644H37.9261C17.0455 8.09644 0 24.9998 0 46.0226C0 67.0453 17.0455 83.9487 37.9261 83.9487H38.0682V82.6703Z" fill="#163459"/>
<path d="M38.0674 64.2045C27.8401 64.2045 19.7435 56.108 19.7435 46.0227C19.7435 35.9375 27.8401 27.8409 37.9253 27.8409H38.0674V26.5625H37.9253C27.1299 26.5625 18.4651 35.2273 18.4651 46.0227C18.4651 56.8182 27.1299 65.483 37.9253 65.483H38.0674V64.2045Z" fill="#163459"/>
<path d="M104.542 73.7216C120.025 80.2557 137.781 73.0114 144.315 57.6705C150.849 42.3296 143.889 24.5739 128.548 17.7557H128.406L128.974 16.4773H129.116C139.485 20.8807 146.73 30.6818 148.15 41.9034C149.428 53.125 144.741 64.3466 135.65 71.1648C126.559 77.983 114.485 79.4034 104.116 74.858H103.974L104.542 73.7216Z" fill="#93CDE0"/>
<path d="M100.568 81.96C113.778 87.7839 128.977 86.0794 140.625 77.6987C152.131 69.176 158.381 55.2555 156.818 40.9089C155.256 26.7044 146.165 14.3464 133.097 8.52255H132.955L133.523 7.24414H133.665C154.688 16.4771 164.205 40.9089 154.972 61.9316C145.739 82.9544 121.307 92.4714 100.284 83.2384H100.142L100.568 81.96Z" fill="#93CDE0"/>
<path d="M108.238 64.3462C118.465 69.1758 130.681 64.7723 135.511 54.5451C140.34 44.3178 135.937 32.2439 125.71 27.4144H125.568L126.136 26.136H126.278C133.38 29.403 138.068 36.2212 138.778 44.0337C139.488 51.8462 135.937 59.2326 129.545 63.778C123.153 68.1814 114.914 68.8917 107.812 65.6246H107.67L108.238 64.3462Z" fill="#93CDE0"/>
<path d="M92.3284 100H48.5784V0H136.789L92.3284 100Z" fill="#1C437C"/>
<path d="M133.239 6.53394H37.5002V9.37484H133.239V6.53394Z" fill="#F7E39E"/>
<path d="M128.835 15.9087H37.5002V18.7496H128.835V15.9087Z" fill="#F7E39E"/>
<path d="M108.523 63.3518H37.5002V66.1927H108.523V63.3518Z" fill="#F7E39E"/>
<path d="M100.426 81.2498H37.5002V84.0907H100.426V81.2498Z" fill="#F7E39E"/>
<path d="M104.83 72.5854H37.5002V75.4264H104.83V72.5854Z" fill="#F0CA50"/>
<path d="M125.71 25.1418H37.5002V27.9828H125.71V25.1418Z" fill="#F0CA50"/>
<path fill-rule="evenodd" clip-rule="evenodd" d="M28.5496 37.3574C31.3905 34.5165 35.3678 33.5222 39.203 34.5165C43.0382 35.5108 46.0212 38.3517 47.1575 42.1869H40.3393L39.9132 41.7608C37.9246 39.9142 34.7996 39.9142 32.953 41.7608C30.9643 43.7494 30.9643 46.7324 32.953 48.721C34.9416 50.7097 37.9246 50.7097 39.9132 48.721L40.3393 48.2949H47.1575C45.8791 52.6983 41.9018 55.9653 37.3564 56.2494C32.6689 56.5335 28.4075 53.9767 26.4189 49.8574C24.2882 45.596 25.2825 40.6244 28.5496 37.3574Z" fill="#F05F5B"/>
</svg>
