<svg width="108" height="111" viewBox="0 0 108 111" fill="none" xmlns="http://www.w3.org/2000/svg">
<path d="M107.318 76.5764C107.318 56.2866 99.2658 36.8261 84.9292 22.4686C70.5926 8.111 51.144 0.0301286 30.8541 0.000508353C24.1295 -0.0245686 17.4335 0.878254 10.9556 2.68345L19.1162 22.2466C22.9769 21.4388 26.9099 21.0268 30.8541 21.017C45.57 21.0466 59.6731 26.9132 70.0684 37.3294C80.4636 47.7457 86.3018 61.8605 86.3018 76.5764C86.3102 80.6385 85.8602 84.6886 84.9603 88.6497L104.524 97.2575C106.366 90.5179 107.306 83.5634 107.318 76.5764Z" fill="#163459"/>
<path d="M0 76.2076H0.670745C0.670745 77.3255 0.782514 78.5552 0.894304 79.6731H0.223593C0.111803 78.5552 0 77.4373 0 76.2076ZM0.223593 72.6304C0.335383 71.4007 0.447165 70.2828 0.670745 69.0531L1.45325 69.2767C1.14935 70.4098 0.962057 71.571 0.894304 72.7422L0.223593 72.6304ZM0.782541 83.3622L1.45325 83.1386C1.67683 84.2565 2.01222 85.4862 2.34759 86.6041L1.67684 86.8276C1.34148 85.5979 1.00612 84.4801 0.782541 83.3622ZM1.67684 65.6994C2.00056 64.5517 2.41166 63.4306 2.90654 62.3457L3.57728 62.5693C3.13012 63.6872 2.68296 64.8051 2.34759 65.8112L1.67684 65.6994ZM2.90654 90.0696L3.57728 89.846L5.14233 92.9761L4.58338 93.3114L2.90654 90.0696ZM4.58338 59.1038C5.14233 58.0977 5.81305 57.0916 6.48379 56.0855L7.04273 56.5327C6.34531 57.4581 5.71044 58.4291 5.14233 59.4392L4.58338 59.1038ZM6.48379 96.3297L7.04273 95.8826C7.82526 96.7769 8.496 97.783 9.27853 98.5655L8.83138 99.1245C7.93706 98.2302 7.26631 97.2241 6.48379 96.3297ZM8.71958 53.2907C9.52103 52.4147 10.38 51.5931 11.2908 50.8314L11.7379 51.2785C10.8619 52.08 10.0403 52.9389 9.27853 53.8497L8.71958 53.2907ZM11.2908 101.584L11.7379 101.025C12.6193 101.831 13.5529 102.578 14.5327 103.261L14.0855 103.82L11.2908 101.584ZM14.0855 48.4838L16.992 46.5833L17.4392 47.1423C16.4331 47.813 15.427 48.372 14.4209 49.1545L14.0855 48.4838ZM17.1038 105.832L17.4392 105.161C18.4453 105.832 19.5632 106.279 20.5693 106.838L20.2339 107.397L17.1038 105.832ZM20.2339 44.9065L23.5876 43.6768L23.8112 44.3476L20.4575 45.5772L20.2339 44.9065ZM23.5876 108.738L23.8112 108.068L27.2767 108.962L27.0531 109.633L23.5876 108.738ZM27.0531 42.7825C28.171 42.4471 29.4007 42.3353 30.5186 42.1118V42.8943C29.3484 42.9714 28.1881 43.1585 27.0531 43.4533V42.7825ZM30.6304 110.192V109.521H34.2076V110.303H34.0958L30.6304 110.192ZM34.0958 42.2236V42H37.5613V42.7825L34.0958 42.5589V42.2236ZM37.7849 109.521L41.2504 108.962L41.474 109.633L37.8967 110.192L37.7849 109.521ZM41.1386 43.3415V42.6707L44.6041 43.565L44.3805 44.2358L41.1386 43.3415ZM44.7159 107.956L47.9578 106.726L48.1813 107.397L44.9394 108.627L44.7159 107.956ZM47.7342 45.5772L48.0695 44.9065L51.1996 46.4716L50.8643 47.1423L47.7342 45.5772ZM51.0879 105.161L53.9944 103.261L54.4416 103.82L51.4232 105.72L51.0879 105.161ZM53.7708 49.0427L54.218 48.4838C55.1977 49.1668 56.1313 49.9137 57.0127 50.7196L56.5656 51.2785C55.6841 50.4726 54.7505 49.7258 53.7708 49.0427ZM56.6774 101.025C57.5534 100.223 58.375 99.3645 59.1367 98.4538L59.6957 99.0127C58.8942 99.8887 58.0353 100.71 57.1245 101.472L56.6774 101.025ZM59.0249 53.7379L59.5839 53.179L61.8197 55.9737L61.2607 56.4209C60.5768 55.4771 59.8299 54.5808 59.0249 53.7379ZM61.3725 95.7708C62.0699 94.8453 62.7048 93.8743 63.2729 92.8643L63.8319 93.1996C63.2729 94.2058 62.6022 95.2119 61.9315 96.218L61.3725 95.7708ZM63.1611 59.3274L63.7201 58.992C64.365 59.987 64.9259 61.034 65.3969 62.1221L64.7262 62.4575C64.279 61.4514 63.7201 60.3335 63.1611 59.3274ZM64.838 89.7342C65.2851 88.6163 65.7323 87.4984 66.0677 86.3805L66.7384 86.6041C66.3964 87.7457 65.9857 88.8656 65.5087 89.9578L64.838 89.7342ZM66.0677 65.6994L66.7384 65.4758C67.0738 66.5937 67.4092 67.8234 67.6327 68.9413L66.962 69.1649C66.73 67.9937 66.4314 66.8366 66.0677 65.6994ZM66.962 83.0268C67.1856 81.9089 67.4091 80.6792 67.5209 79.5613H68.1917C68.1146 80.7314 67.9275 81.8917 67.6327 83.0268H66.962ZM67.5209 72.5186H68.1917C68.3035 73.6365 68.4153 74.8662 68.4153 76.0958H67.7445C67.7445 74.8662 67.6327 73.7482 67.5209 72.5186Z" fill="#93CDE0"/>
<path d="M59.5859 50.8651L61.9335 48.2939L62.3807 48.7411L60.0331 51.3122L59.5859 50.8651ZM64.2811 45.7228L66.6287 43.1516L67.1877 43.5988L64.8401 46.1699L64.2811 45.7228ZM69.0881 40.5805L71.4356 38.0093L71.9946 38.4564L69.5352 41.0276L69.0881 40.5805Z" fill="#93CDE0"/>
<path d="M48.6279 90.2148V62.6028H20.96V90.2148H48.6279Z" fill="#F0CA50"/>
<path d="M35.4386 71.3225H33.9854V81.1712H35.4386V71.3225Z" fill="#FDFDFD"/>
<path d="M39.5738 75.5706H29.7363V76.9679H39.5738V75.5706Z" fill="#FDFDFD"/>
</svg>
