<svg width="290" height="113" viewBox="0 0 290 113" fill="none" xmlns="http://www.w3.org/2000/svg">
<path d="M-0.00012207 56.4163C0.0224304 62.6347 1.09784 68.8043 3.1806 74.6635L4.18503 77.1746L5.35684 79.6857L7.36575 83.3687C10.4987 88.602 14.3915 93.341 18.9167 97.4307C30.646 107.53 45.6253 113.058 61.1031 113H289.612V0.000457121H61.1031C45.6253 -0.0578849 30.646 5.47014 18.9167 15.5692C13.0232 20.6266 8.28436 26.8906 5.02078 33.9377C1.7572 40.9847 0.0449524 48.6504 -0.00012207 56.4163Z" fill="#F7E39E"/>
<path d="M-8.39233e-05 56.4166C-8.39233e-05 87.7215 27.2871 113 61.1031 113H78.8481C45.0321 113 17.745 87.7215 17.745 56.4166C17.745 25.1116 45.0321 0.000732422 78.8481 0.000732422H61.1031C27.2871 0.000732422 -8.39233e-05 25.279 -8.39233e-05 56.4166Z" fill="#F0CA50"/>
<path d="M172.428 48.0463C172.469 30.9127 167.334 14.1662 157.696 0.000732422H205.574C213.612 18.0952 216.995 37.9129 215.416 57.6492C213.838 77.3855 207.346 96.4133 196.534 113H143.299C162.216 95.2548 172.428 72.3201 172.428 48.0463Z" fill="#F0CA50"/>
<path d="M112.162 35.3235C109.295 35.3235 106.972 33.2248 106.972 30.6361C106.972 28.0473 109.295 25.9487 112.162 25.9487C115.028 25.9487 117.351 28.0473 117.351 30.6361C117.351 33.2248 115.028 35.3235 112.162 35.3235Z" fill="#F0CA50"/>
<path d="M65.6234 64.2842C62.7573 64.2842 60.4338 62.1856 60.4338 59.5968C60.4338 57.008 62.7573 54.9094 65.6234 54.9094C68.4895 54.9094 70.813 57.008 70.813 59.5968C70.813 62.1856 68.4895 64.2842 65.6234 64.2842Z" fill="#F0CA50"/>
<path d="M172.594 29.9663H123.712" stroke="#51575C" stroke-width="3.47459" stroke-miterlimit="10"/>
<path d="M101.951 29.9663H11.5514" stroke="#51575C" stroke-width="3.47459" stroke-miterlimit="10"/>
<path d="M54.9097 55.4116H1.17232" stroke="#51575C" stroke-width="3.47459" stroke-miterlimit="10"/>
<path d="M172.594 55.4116H75.8336" stroke="#51575C" stroke-width="3.47459" stroke-miterlimit="10"/>
</svg>
