<svg width="100" height="99" viewBox="0 0 100 99" fill="none" xmlns="http://www.w3.org/2000/svg">
<path d="M30.9828 81.9891C30.9374 81.9891 30.8467 81.9891 30.8013 81.9891H3.44761C3.40225 81.9891 3.31146 81.9891 3.26609 81.9891C7.80237 77.09 10.2974 70.6938 10.252 64.0255C10.252 58.1284 8.30144 52.4127 4.71779 47.7857H29.4858C21.638 58.0377 22.2278 72.463 30.9828 81.9891Z" fill="#EE4D4A"/>
<path d="M0.0908356 92.1958V85.3461C0.0908356 83.5315 1.49717 82.0346 3.35704 81.9438C3.4024 81.9438 3.49308 81.9438 3.53845 81.9438H30.8922C30.9375 81.9438 31.0282 81.9438 31.0736 81.9438C32.8881 82.0346 34.3397 83.5315 34.3397 85.3461V99.0002H0.18165V92.1958H0.0908356Z" fill="#EE4D4A"/>
<path d="M27.3991 27.2817V34.1315H20.5493V27.2817H13.6995V34.1315H6.84981V27.2817H0V44.3835C0 46.2887 1.54233 47.7857 3.4022 47.7857H30.7559C32.6612 47.7857 34.1581 46.2434 34.1581 44.3835V27.2817H27.3991Z" fill="#EE4D4A"/>
<path d="M44.5009 92.1955V75.0938H99.1629V98.9999H44.5009V92.1955Z" fill="#1C427B"/>
<path d="M99.163 46.1071C99.163 56.9034 95.1257 67.2461 87.7769 75.1392H56.4766C52.394 69.6957 49.6722 63.3903 48.5382 56.6766C60.0603 52.0043 68.9967 42.5688 73.034 30.7745C68.407 35.9005 60.8769 37.3068 54.7075 34.2221L53.9364 34.9932C51.5775 37.3521 47.767 37.3521 45.4082 34.9932C43.0493 32.6344 43.0493 28.8239 45.4082 26.4651L54.7982 17.075V13.6728L61.648 6.823C61.648 4.37341 60.3325 2.10528 58.2458 0.925847C61.512 -0.979387 65.6853 0.154681 67.5905 3.4208C67.8627 3.91979 68.0895 4.46413 68.2709 5.05384C70.3123 5.64356 72.2629 6.36938 74.2135 7.23128C75.3476 7.73026 76.4363 8.31996 77.525 8.90967C90.8616 16.4399 99.163 30.6838 99.163 46.1071Z" fill="#1C427B"/>
</svg>
