<svg width="113" height="85" viewBox="0 0 113 85" fill="none" xmlns="http://www.w3.org/2000/svg">
<path d="M87.2221 54.7637L56.4471 14.7298C53.1329 12.9412 40.2442 9.62699 30.6698 19.254L18.9911 30.9327C13.2043 36.7195 13.2043 46.1361 18.9911 51.9228L26.9873 59.919L62.9704 79.5414C65.2325 81.8035 68.8624 81.8035 71.0718 79.5414L71.1244 79.4889C73.3865 77.2268 73.3865 73.5968 71.1244 71.3873L70.8088 71.0718L70.9666 71.177C73.2287 73.4391 76.8586 73.4391 79.0681 71.177L79.1207 71.1243C81.3302 68.9148 81.3828 65.2849 79.1733 63.0754C81.4354 65.2323 85.0126 65.2324 87.2221 63.0229L87.2747 62.9702C89.4842 60.6555 89.4842 57.0257 87.2221 54.7637Z" fill="#EEB098"/>
<path d="M91.3253 30.0919C89.1158 27.8298 82.5925 21.5171 81.0143 19.7811C71.3873 10.154 58.446 13.4682 55.1844 15.3095L40.4545 21.7275C36.9824 23.4109 35.562 27.5668 37.2454 30.9862C38.9289 34.4583 43.0848 35.8787 46.5043 34.1953L54.9213 30.4601C54.974 30.5127 59.7612 33.0379 65.6531 33.0905L87.2746 54.7119C87.8532 55.2906 88.2741 55.9219 88.5371 56.6584L91.3253 53.8702C97.9011 47.3469 97.9011 36.6678 91.3253 30.0919Z" fill="#FDDCCF"/>
<path d="M25.356 64.1807C23.0413 61.866 23.0413 58.2361 25.3034 56.0267L28.7228 52.6072C30.9849 50.3451 34.6148 50.3451 36.8243 52.6072L36.8769 52.6599C39.139 54.922 39.139 58.5518 36.8769 60.7613L33.4575 64.1807C31.1954 66.4428 27.5655 66.4428 25.356 64.1807Z" fill="#FDDCCF"/>
<path d="M34.1946 71.7041C31.8799 69.3894 31.8799 65.7595 34.142 63.55L41.0335 56.6585C43.2956 54.3964 46.9255 54.3964 49.135 56.6585L49.1876 56.7111C51.4497 58.9732 51.4497 62.6031 49.1876 64.8125L42.2961 71.7041C40.034 73.9662 36.4041 73.9662 34.1946 71.7041Z" fill="#FDDCCF"/>
<path d="M44.2944 77.9112C41.9797 75.5965 41.9797 71.9666 44.2417 69.7571L47.6612 66.3377C49.9233 64.0756 53.5532 64.0756 55.7626 66.3377L55.8153 66.3902C58.0773 68.6523 58.0773 72.2823 55.8153 74.4917L52.3958 77.9112C50.1863 80.1733 46.5564 80.1733 44.2944 77.9112Z" fill="#FDDCCF"/>
<path d="M55.2372 83.3296C52.9225 81.0149 52.9225 77.385 55.1846 75.1755L55.395 74.9651C57.6571 72.703 61.287 72.703 63.4965 74.9651L63.5491 75.0178C65.8112 77.2799 65.8112 80.9097 63.5491 83.1192L63.3387 83.3296C61.1292 85.539 57.4993 85.539 55.2372 83.3296Z" fill="#FDDCCF"/>
<path d="M38.5608 15.8346L15.256 39.1393C12.5204 41.8749 8.04885 41.8749 5.31329 39.1393L2.05167 35.8777C-0.683889 33.1422 -0.683889 28.6706 2.05167 25.9351L25.3565 2.63022C28.0921 -0.105337 32.5636 -0.105337 35.2992 2.63022L38.5608 5.89182C41.2964 8.62737 41.2964 13.099 38.5608 15.8346Z" fill="#EE4D4A"/>
<path d="M97.744 38.403L74.597 15.256C71.8615 12.5205 71.8615 8.04895 74.597 5.31339L77.8586 2.05167C80.5942 -0.683889 85.0658 -0.683889 87.8013 2.05167L110.948 25.1987C113.684 27.9342 113.684 32.4059 110.948 35.1414L107.687 38.403C104.951 41.1912 100.532 41.1912 97.744 38.403Z" fill="#F0CA50"/>
</svg>
