<svg width="93" height="93" viewBox="0 0 93 93" fill="none" xmlns="http://www.w3.org/2000/svg">
<path d="M92.7641 35.8286C92.7641 55.1113 77.5453 70.8277 58.4699 71.6985C57.9309 71.74 57.3918 71.7399 56.8527 71.7399C37.0309 71.7399 20.9827 55.6918 20.9827 35.87C20.9827 18.2045 33.7549 3.52484 50.5495 0.539136C52.6229 0.165922 54.7378 8.01838e-05 56.8941 8.01838e-05C76.6745 -0.041388 92.7641 16.0068 92.7641 35.8286Z" fill="#5C9EDC"/>
<path d="M80.8627 35.7037C80.8627 49.108 70.0081 59.9626 56.6038 59.9626C55.1104 59.9626 53.6534 59.8169 52.2328 59.5619C40.9411 57.5222 32.3449 47.6146 32.3449 35.7037C32.3449 25.9419 38.1364 17.4914 46.4413 13.6668C49.5374 12.2462 52.9613 11.4448 56.5674 11.4448C70.0081 11.4812 80.8627 22.3359 80.8627 35.7037Z" fill="#F0CA50"/>
<path d="M56.8115 48.3517C63.6822 48.3517 69.2519 42.7819 69.2519 35.9113C69.2519 29.0406 63.6822 23.4708 56.8115 23.4708C49.9408 23.4708 44.371 29.0406 44.371 35.9113C44.371 42.7819 49.9408 48.3517 56.8115 48.3517Z" fill="white"/>
<path d="M33.1101 62.6164V83.3504C33.1101 84.0554 32.8198 84.7603 32.3222 85.2579L25.6458 92.1417C25.397 92.3905 25.1482 92.5563 24.858 92.7222L18.5133 86.3776L6.61196 74.4762L0.267334 68.1316C0.391738 67.8414 0.599079 67.5925 0.847888 67.3437L7.7316 60.6674C8.22922 60.1698 8.93418 59.8794 9.63914 59.8794H30.3732C31.9075 59.838 33.1101 61.082 33.1101 62.6164Z" fill="#1C427B"/>
<path d="M24.8578 68.1318V92.7224C23.8211 93.22 22.5771 93.0542 21.7062 92.1834L0.806296 71.2834C-0.0230675 70.454 -0.230408 69.1685 0.26721 68.1318H24.8578Z" fill="#EE4D4A"/>
<path d="M58.6964 38.4409L44.0167 53.1206L33.152 63.9853L11.7959 85.3414C10.6348 86.5025 8.8102 86.5025 7.64909 85.3414C6.48798 84.1803 6.48798 82.3557 7.64909 81.1946L31.9494 56.8942L54.5496 34.294C55.7107 33.1329 57.5353 33.1329 58.6964 34.294C59.816 35.4552 59.816 37.2798 58.6964 38.4409Z" fill="#1C427B"/>
</svg>
