<svg width="92" height="91" viewBox="0 0 92 91" fill="none" xmlns="http://www.w3.org/2000/svg">
<circle cx="55.7554" cy="35.8393" r="26.3276" fill="#C4C4C4"/>
<path d="M3.18479 72.4435C-1.0616 76.6898 -1.0616 83.569 3.18479 87.8154C7.43117 92.0618 14.3103 92.0618 18.5567 87.8154L46.5828 59.7893C50.8292 55.5429 50.8292 48.6637 46.5828 44.4174C42.3364 40.171 35.4573 40.171 31.2109 44.4174L3.18479 72.4435Z" fill="#1C427B"/>
<path d="M47.6448 65.4796L25.5636 43.3984L19.6186 49.3434C16.5612 52.4008 16.5612 57.369 19.6186 60.4264L30.6168 71.4246C33.6742 74.4819 38.6424 74.4819 41.6998 71.4246L47.6448 65.4796Z" fill="#EE4D4A"/>
<path d="M56.0949 0C36.8163 0 21.1897 15.6267 21.1897 34.9477C21.1897 54.2263 36.8163 69.853 56.0949 69.853C75.3735 69.853 91.0426 54.2263 91.0426 34.9477C91.0002 15.6692 75.3735 0 56.0949 0ZM56.0949 57.5809C43.5681 57.5809 33.4617 47.4321 33.4617 34.9477C33.4617 22.4209 43.6105 12.2721 56.0949 12.2721C68.6217 12.2721 78.7281 22.4209 78.7281 34.9477C78.7281 47.4321 68.5793 57.5809 56.0949 57.5809Z" fill="#5C9EDC"/>
<path d="M56.095 57.5813C68.595 57.5813 78.7282 47.4481 78.7282 34.9481C78.7282 22.4481 68.595 12.3148 56.095 12.3148C43.5951 12.3148 33.4618 22.4481 33.4618 34.9481C33.4618 47.4481 43.5951 57.5813 56.095 57.5813Z" fill="white"/>
</svg>
